<svg xmlns="http://www.w3.org/2000/svg" viewBox="0 0 450 380.84"><defs><style>.cls-1{fill:#fff;}.cls-2{fill:#231815;}</style></defs><title>logo</title><g id="レイヤー_2" data-name="レイヤー 2"><g id="レイヤー_1-2" data-name="レイヤー 1"><path class="cls-1" d="M154.61,353c-1.25,0-1.32.22-1.32,1.78v13.84c0,4.3.51,8.22,5.4,8.22a5.6,5.6,0,0,0,2-.37c.67-.22,1.64-1,1.86-1,.59,0,.89.81.73,1.25a10.2,10.2,0,0,1-7.77,3.41c-6.36,0-7.69-3.55-7.69-8v-17c0-2-.08-2.15-1.56-2.15h-2.07a1.22,1.22,0,0,1-.22-1.55,15,15,0,0,0,4.74-2.29,19,19,0,0,0,3.11-4.37c.36-.15,1.25-.15,1.55.36v3.33c0,1.34.08,1.41,1.34,1.41h8.22A2.38,2.38,0,0,1,163,353Z"/><path class="cls-1" d="M182.11,338.72c5-3.88,11.33-5.79,18.41-5.79a52.41,52.41,0,0,1,12.07,1.64,5.18,5.18,0,0,0,1.91.27c.06,1.57.41,5.86.95,10a1.44,1.44,0,0,1-1.84.12c-1-4.63-4.09-9.95-14-9.95-10.43,0-19.3,6.62-19.3,20.73,0,14.31,9.07,22.21,20.26,22.21,8.78,0,12.67-5.72,14.23-9.74a1.45,1.45,0,0,1,1.78.27c-.48,3.55-2.25,8.05-3.27,9.34a13.41,13.41,0,0,0-2.39.68,39.84,39.84,0,0,1-10.77,1.57c-6.13,0-12-1.22-17-4.56a22,22,0,0,1-9.68-18.76A22.68,22.68,0,0,1,182.11,338.72Z"/><path class="cls-1" d="M256.05,364.18c0,9.26-6.37,15.92-15.62,15.92-8.51,0-15.18-6-15.18-15.26a15.57,15.57,0,0,1,15.78-16C249.31,348.86,256.05,355.08,256.05,364.18Zm-15.91-13.1c-4.89,0-8.51,4.67-8.51,12.8,0,6.74,3,14,9.55,14s8.5-6.81,8.5-12.52C249.68,359.08,247.17,351.08,240.14,351.08Z"/><path class="cls-1" d="M293.11,368.26c0,5.84.07,8.58,2.15,8.58a12.38,12.38,0,0,0,3.18-.73c.53.14.59,2-.07,2.36a54.69,54.69,0,0,0-9.77,2.37c-.45,0-.81-.22-.81-.6V379a8.2,8.2,0,0,0-.15-2.3h-.3c-3.26,2.22-5.78,3.41-9.33,3.41-8.22,0-13.7-6.44-13.7-14.22,0-10.36,7.85-17,17.92-17a15.37,15.37,0,0,1,5,.66c.38,0,.45-.44.45-1V337.31c0-4.37-.07-4.82-2.31-6.14l-.74-.46a1.14,1.14,0,0,1,0-1.47,52.92,52.92,0,0,0,8-3.11.81.81,0,0,1,.73.44c-.07,2.23-.22,5.92-.22,9.18Zm-5.47-11.11a4.35,4.35,0,0,0-.82-2.89,7.75,7.75,0,0,0-6.22-3.11c-6.73,0-10.22,5.85-10.22,12.29,0,6.74,3.78,13.11,11,13.11a9.06,9.06,0,0,0,5.7-2.08c.45-.44.52-1.55.52-2.74Z"/><path class="cls-1" d="M311.89,360.11c-1.92,0-2,.16-2,2,0,7.48,4.37,13.84,12.29,13.84,2.44,0,4.52-.73,6.81-3.62a1,1,0,0,1,1.33.88c-2.44,5-7.77,6.89-11.62,6.89A13.26,13.26,0,0,1,308,375.22a15.7,15.7,0,0,1-3.11-9.63c0-9.11,6-16.73,14.87-16.73,6.37,0,10.52,4.36,10.52,8.81a4.5,4.5,0,0,1-.3,1.92c-.22.45-1.25.52-4.37.52Zm4.59-2.22c5.48,0,7.11-.3,7.7-.74.23-.15.44-.44.44-1.4,0-2.08-1.4-4.67-5.7-4.67s-8.14,4-8.21,6.43c0,.16,0,.38.51.38Z"/><path class="cls-1" d="M343.29,357.81c0-2.88,0-3.25-2-4.59l-.66-.44a1,1,0,0,1,.08-1.33,58.5,58.5,0,0,0,7.47-3.63c.37.07.59.22.59.51v4.3c0,.37.07.59.22.67,2.6-2.15,5.41-4.44,8.14-4.44a3.06,3.06,0,0,1,3.34,2.95,3.29,3.29,0,0,1-3.18,3.42,2.74,2.74,0,0,1-1.63-.53,6.12,6.12,0,0,0-3.27-1.18,3.26,3.26,0,0,0-2.66,1.49c-.74,1-1,3.17-1,5.7v10.06c0,5.34.15,6.22,3,6.44l2.66.22a1.29,1.29,0,0,1-.15,1.85c-3.48-.14-5.62-.22-8.22-.22s-4.88.08-6.82.22a1.3,1.3,0,0,1-.13-1.85l1.41-.22c2.72-.44,2.81-1.1,2.81-6.44Z"/><path class="cls-1" d="M138.09,377.43l-2-.22c-3.17-.37-4.14-1.48-6.29-7.85L119.65,339.6c-1.11-3.25-2.29-6.66-3.25-9.92a1.07,1.07,0,0,0-1.12-.66,8.31,8.31,0,0,1-3.84,2.81c.22,1.18-.23,2.59-1.26,5.26l-7.56,20c-3.1,8.29-5.18,13.11-6.51,16.51-1,2.67-2.67,3.49-4.44,3.63l-2.44.22a1.44,1.44,0,0,0,.14,1.85c2-.06,4.66-.22,7.11-.22,3.48.08,5.77.08,7.7.22a1.2,1.2,0,0,0,.15-1.85l-2.45-.22c-1.78-.14-2.14-.58-2.14-1.48a28.76,28.76,0,0,1,1.62-6.14l2.6-7.78c.52-1.54,1-1.77,2.81-1.77h9.87l-.91-3h-7.85c-2.08,0-2.14-.07-1.56-1.77L111,342.41c.82-2.22,1.57-4,1.78-4.36h.15a49.11,49.11,0,0,1,1.7,4.66l3.3,9.92h0l2.86,8.65c.07.18.14.38.22.61L124.24,372a14.91,14.91,0,0,1,1,3.93c0,.75-1,1.19-2.59,1.33l-2.14.22a1.23,1.23,0,0,0,.15,1.85c2.14-.06,5-.22,8.51-.22,3.33,0,5.92.08,9,.22A1.46,1.46,0,0,0,138.09,377.43Z"/><path class="cls-1" d="M349,181.46c.89-1.4,11.62-7,11.51-7.11-3.39-2.59-10.79-.93-16.82-1.5-1.33-.12-5.81-1.6-7.29-1.69-2.22-.12-2.2,2-2.16,3.26,0,.12-.64,12.19-.64,17a3.45,3.45,0,0,0,.27,1.41c.09.19,4-3.5,5.27-4.66-1.63-1.71-1-8.28-1.08-11.06,0-1.07.47-1.69,1.06-1.07a16.5,16.5,0,0,0,9.88,5.47"/><path class="cls-1" d="M336.85,198.72c1.72,1.25,2.47.86,3.72,1.5a8.16,8.16,0,0,1,2.51,2.67,9.36,9.36,0,0,1,1,2.86,3,3,0,0,0,4.1,2.14c.8-.25,4-9.55,1.13-10.81-2-.91-3.42.81-4.69.65-.78-.1-.4-2.32-.39-2.4a1.72,1.72,0,0,0-1.32-1.6,9.8,9.8,0,0,0-1.33.2c-.19,0-4.75,4.79-4.76,4.79"/><path class="cls-1" d="M387.33,243a92.44,92.44,0,0,0,2.13,18.14,1.31,1.31,0,0,1-.53,1.69c-5.44,4.66-11.06,10.35-16,12.8-1.56.77-3.2,1.07-4.11,2.15-.78.92-.74,2.51-.71,3.72a8,8,0,0,1-2.13,6.1,3.17,3.17,0,0,0-.56.6c-1,1.93-.86,7,.73,7.87.84.47,4.63-2.89,6.07-5.53.27-.49-.59-2.64-.94-3.82a2.2,2.2,0,0,1,1.78-2.64,2.38,2.38,0,0,0,1.34-.63c.61-.65.47-1.94.13-3.05a2,2,0,0,1-.09-1.42c.08-.32,5.56-3.9,7.4-5.29,4-3,13.19-5.53,16.16-9.36.93-1.19,1.14-2.56-.09-3.64s-9.63-12.44-10.54-17.69"/><path class="cls-1" d="M450,235.35c.12.05-7-7.75-18.39-2.1-.06,0-6-4.51-7.85-6.15-.47-.41,1.24-5.47-4.07-10.54-4.33-4.13-17.93-11.05-23.63-21.78-3.45-6.54,2.27-20.54,1.42-32-.13-1.75-2.66-4.14-3.07-5.53-2.64-9.12-3.35-13-4.8-16.81a5.63,5.63,0,0,1-2.57,3.24c.83-1.34,2-4,1.07-6.45a11.7,11.7,0,0,0-.79-1.19,7.1,7.1,0,0,1-2,5.81c.36-.83,1.45-5.77.72-7.25-.31-.31-.65-.61-1-.9s-.47-.36-.7-.53a12.32,12.32,0,0,1-.77,6.37,20.57,20.57,0,0,0-.65-7.25,20.48,20.48,0,0,0-15.65-1.19,9.82,9.82,0,0,0-5.58,5.81l-26.27-4.62-.23.11.13.18,25.19,10.18c-.32,4.22.09,8.57-.49,11.45s-2,3.55-2,4.56c0,1.17,1.22,3.72,4,1.47.61-.49,1.11-1.51,2.26-1.28,1.86.38.41,2.86,1.94,3,2.36.17,1.23-3.89,1.45-5.11s1.79-7,4.66-6.59c2.6.36,2.17,2.08,2.19,4a17.27,17.27,0,0,1-.92,7.46c-1.3,1.11-10,9.87-12.66,14.08-.16.26-10.52,5.57-14.56,8.44-13.74,9.75-20.25,20.61-19.79,24.07,0,.26,2.54,5.19,4.1,8.17.24,1.65-.46,7.63,1.32,8,2.11.43,7.35-7.17,5.76-9.19-1.17-1.49-2.67-.8-3.19-1.65a2.57,2.57,0,0,1-.34-.62c-.23-.51,1.09-2,.66-3.34-.81-2.39-2.51-1.38-2.81-2.47a11.77,11.77,0,0,1-.45-2.69,4,4,0,0,1,.55-2.2c2.71-3.9,9.76-11.76,15.75-13,.39-.08,9.56,9.92,15.56,10.8.24,0,7.17,19.12,20.36,20.35-1.58,10.38,9.27,37.29,18.73,42.52,1.1.61,1,2.8.51,3.45s-13,12.35-18.47,18.14c-.66.7-.52,4.91-.6,5.47-.21,1.56-2.21,8.63-.88,9.64,1.77,1.35,8.79-3.8,6.5-6.56-.43-.53-2.74-1.51-1.78-3.16.5-.88,3.59-.4,4.57-2,.62-1,.09-3,.07-4s13.33-13.39,16.76-16.57a2.28,2.28,0,0,0,1.19-1.78,19.15,19.15,0,0,0-.2-2.58c-.17-1.26-9.11-12.15-1.61-17.41,2.57-1.79,11.82-7.53,14.12-14.46a26.67,26.67,0,0,1,5.23,4.55c-4.24,3.25-7.36,9.63-7.93,10.84-.1.22,4.06-3.17,7.71-4.18.13,0-11.6,15.35-11,22.49A25.56,25.56,0,0,1,424.59,254c.25-.2-10.63,21.95,3.2,36.76,0,0-4.62-15.11-2.18-19.72.06-.11,6.53,13.78,16.91,13.33.16,0-8.47-7.39-10.46-18.91a15.69,15.69,0,0,0,7.93,5.08c.42.09-8.57-10.9-3.08-19.06.25,6.5,4.53,10.62,6,11.08.22.06-3.25-8.21-.66-13.92,1.3,1.45,2.69,4,6.29,3.95a31.85,31.85,0,0,1-4.52-16.66C444.06,235.07,446.72,234,450,235.35Z"/><path class="cls-1" d="M366.88,128.74l.06,0,.07,0a23.42,23.42,0,0,1,6.94-1.08,21,21,0,0,1,9.91,2.39l.6.32.58.38.41.29c.27.18.52.38.78.57s.76.67,1.12,1l.22.23.69.74.5.65a14.35,14.35,0,0,1,.87,1.32l.11.17.66,1.26c1.33,2.74,2.23,6.14,3.47,10.84,1.39-6.21,3.21-12.39.35-20-1.51-4-8.87-15.91-27-13.2-12.3,1.84-19.06,13.77-19.06,13.77l11.73,5S364.23,129.84,366.88,128.74Z"/><path class="cls-1" d="M101,181.46c-.89-1.4-11.63-7-11.51-7.11,3.4-2.59,10.79-.93,16.82-1.5,1.32-.12,5.81-1.6,7.3-1.69,2.21-.12,2.19,2,2.16,3.26,0,.12.64,12.19.64,17a3.42,3.42,0,0,1-.28,1.41c-.09.19-4-3.5-5.27-4.66,1.63-1.71,1-8.28,1.08-11.06,0-1.07-.47-1.69-1.06-1.07a16.47,16.47,0,0,1-9.88,5.47"/><path class="cls-1" d="M113.14,198.72c-1.71,1.25-2.47.86-3.73,1.5a8.34,8.34,0,0,0-2.5,2.67,9.09,9.09,0,0,0-1,2.86,3,3,0,0,1-4.11,2.14c-.81-.25-3.94-9.55-1.12-10.81,2-.91,3.4.81,4.68.65.79-.1.4-2.32.4-2.4a1.71,1.71,0,0,1,1.31-1.6,10,10,0,0,1,1.33.2c.19,0,4.75,4.79,4.76,4.79"/><path class="cls-1" d="M62.67,243a92.43,92.43,0,0,1-2.14,18.14,1.32,1.32,0,0,0,.53,1.69c5.44,4.66,11.06,10.35,16,12.8,1.56.77,3.19,1.07,4.1,2.15.78.92.75,2.51.71,3.72a8.09,8.09,0,0,0,2.14,6.1,3.47,3.47,0,0,1,.55.6c1,1.93.87,7-.74,7.87-.83.47-4.62-2.89-6.05-5.53-.28-.49.58-2.64.94-3.82A2.21,2.21,0,0,0,77,284.08a2.3,2.3,0,0,1-1.34-.63c-.62-.65-.48-1.94-.15-3.05A2,2,0,0,0,75.6,279c-.09-.32-5.57-3.9-7.41-5.29-4-3-13.19-5.53-16.16-9.36-.93-1.19-1.15-2.56.09-3.64S61.75,248.25,62.67,243"/><path class="cls-1" d="M0,235.35c-.13.05,7-7.75,18.38-2.1.06,0,6-4.51,7.85-6.15.48-.41-1.23-5.47,4.07-10.54,4.34-4.13,17.93-11.05,23.62-21.78,3.46-6.54-2.25-20.54-1.42-32,.14-1.75,2.68-4.14,3.08-5.53,2.64-9.12,3.35-13,4.8-16.81A5.61,5.61,0,0,0,63,143.71c-.83-1.34-2-4-1.07-6.45a11.65,11.65,0,0,1,.78-1.19,7,7,0,0,0,2,5.81c-.34-.83-1.44-5.77-.71-7.25a12.66,12.66,0,0,1,1-.9c.22-.18.45-.36.7-.53a12.25,12.25,0,0,0,.76,6.37,20.8,20.8,0,0,1,.65-7.25,20.48,20.48,0,0,1,15.65-1.19,9.85,9.85,0,0,1,5.58,5.81l26.27-4.62.23.11-.13.18L89.46,142.79c.33,4.22-.08,8.57.49,11.45s2,3.55,2,4.56c0,1.17-1.22,3.72-4,1.47-.61-.49-1.11-1.51-2.26-1.28-1.86.38-.4,2.86-1.94,3-2.36.17-1.22-3.89-1.44-5.11s-1.8-7-4.67-6.59c-2.59.36-2.17,2.08-2.2,4a17.68,17.68,0,0,0,.93,7.46c1.3,1.11,10,9.87,12.66,14.08.17.26,10.52,5.57,14.56,8.44,13.75,9.75,20.25,20.61,19.8,24.07,0,.26-2.55,5.19-4.11,8.17-.25,1.65.46,7.63-1.31,8-2.1.43-7.35-7.17-5.77-9.19,1.17-1.49,2.67-.8,3.19-1.65a3,3,0,0,0,.34-.62c.24-.51-1.09-2-.65-3.34.8-2.39,2.5-1.38,2.8-2.47a12.42,12.42,0,0,0,.46-2.69,4.1,4.1,0,0,0-.55-2.2c-2.72-3.9-9.77-11.76-15.76-13-.4-.08-9.55,9.92-15.56,10.8-.25,0-7.16,19.12-20.36,20.35,1.58,10.38-9.26,37.29-18.74,42.52-1.09.61-.94,2.8-.5,3.45s13,12.35,18.47,18.14c.67.7.53,4.91.6,5.47.21,1.56,2.21,8.63.88,9.64-1.77,1.35-8.79-3.8-6.5-6.56.44-.53,2.74-1.51,1.79-3.16-.5-.88-3.61-.4-4.58-2-.61-1-.09-3-.06-4S44.1,270.59,40.67,267.41a2.26,2.26,0,0,1-1.2-1.78,19.11,19.11,0,0,1,.21-2.58c.17-1.26,9.11-12.15,1.6-17.41-2.55-1.79-11.81-7.53-14.11-14.46A26.45,26.45,0,0,0,22,235.73c4.23,3.25,7.36,9.63,7.92,10.84.1.22-4.05-3.17-7.71-4.18-.12,0,11.61,15.35,11,22.49A25.56,25.56,0,0,0,25.4,254c-.25-.2,10.63,21.95-3.19,36.76,0,0,4.61-15.11,2.17-19.72-.06-.11-6.53,13.78-16.91,13.33-.16,0,8.47-7.39,10.45-18.91A15.63,15.63,0,0,1,10,270.49c-.42.09,8.56-10.9,3.08-19.06-.24,6.5-4.52,10.62-6,11.08-.22.06,3.24-8.21.66-13.92-1.3,1.45-2.69,4-6.28,3.95a32.13,32.13,0,0,0,4.51-16.66C5.94,235.07,3.26,234,0,235.35Z"/><path class="cls-1" d="M83.12,128.74l-.07,0-.07,0a23.38,23.38,0,0,0-7-1.08,21,21,0,0,0-9.9,2.39l-.6.32-.57.38-.41.29c-.27.18-.54.38-.77.57-.4.33-.79.67-1.13,1l-.23.23-.69.74-.49.65a12.61,12.61,0,0,0-.88,1.32l-.1.17-.67,1.26c-1.33,2.74-2.23,6.14-3.47,10.84-1.39-6.21-3.21-12.39-.35-20,1.52-4,8.87-15.91,27-13.2,12.3,1.84,19.08,13.77,19.08,13.77l-11.73,5S85.77,129.84,83.12,128.74Z"/><path class="cls-1" d="M221.25,208.84a1.3,1.3,0,0,0,2-1.27v-7a2.2,2.2,0,0,0-2.19-2.21h-9.87c-1.21,0-1.55.75-.76,1.68Z"/><path class="cls-1" d="M206.13,200.22a4.52,4.52,0,0,0-3.41-1.84h-8.47c-1.21,0-1.37.53-.34,1.18l16.87,8.18c1.15.41,1.39,0,.57-.85Z"/><path class="cls-1" d="M223.24,180.51a2.2,2.2,0,0,0-2.19-2.2H203.52a1.59,1.59,0,0,0-1.62,2.12S204.55,190,207,194.8v0s1,0,2.24,0h11.81a2.2,2.2,0,0,0,2.19-2.2Z"/><path class="cls-1" d="M223.24,106.12a1.32,1.32,0,0,0-2-1.3L210.88,113c-.79.9-.46,1.64.76,1.64h9.41a2.19,2.19,0,0,0,2.19-2.19Z"/><path class="cls-1" d="M172.22,193.82a7.94,7.94,0,0,0,1.71,1.23,7,7,0,0,1,2.2-.17H181c1.22,0,1.6-.79.87-1.75l-8.15-12.87a4,4,0,0,0-3.22-1.95h-11c-1.22,0-1.59.78-.84,1.73Z"/><path class="cls-1" d="M223.24,120.3a2.2,2.2,0,0,0-2.19-2.2H209.6c-1.21,0-2.33.23-2.47.52l-.14.26c-2.34,4.63-4.92,13.67-4.92,13.67a1.58,1.58,0,0,0,1.6,2.11h17.38a2.19,2.19,0,0,0,2.19-2.2Z"/><path class="cls-1" d="M223.24,140.37a2.2,2.2,0,0,0-2.19-2.2H203a2.61,2.61,0,0,0-2.51,2.19l-1.21,12.18a2.06,2.06,0,0,0,2.07,2.2h19.75a2.2,2.2,0,0,0,2.19-2.2Z"/><path class="cls-1" d="M223.24,160.44a2.2,2.2,0,0,0-2.19-2.2H201.29a2.08,2.08,0,0,0-2.09,2.2l1.13,12.18a2.6,2.6,0,0,0,2.48,2.19h18.24a2.2,2.2,0,0,0,2.19-2.2Z"/><path class="cls-1" d="M188.37,199.78a7.14,7.14,0,0,0-3.89-1.4h-3.29c-1.22,0-1.31.43-.23,1l13.94,5.86c1.14.4,1.25.19.23-.46Z"/><path class="cls-1" d="M200.94,194.88a1.4,1.4,0,0,0,1.39-2l-4-12.39a3,3,0,0,0-2.76-2.13H178.71c-1.22,0-1.71.86-1.12,1.92l9,13a5.47,5.47,0,0,0,3.64,1.68Z"/><path class="cls-1" d="M196.88,140.36a1.88,1.88,0,0,0-1.91-2.19H177.56a3.1,3.1,0,0,0-2.81,2.12l-2.47,12.26a1.91,1.91,0,0,0,1.93,2.19h19.18a2.37,2.37,0,0,0,2.33-2.2Z"/><path class="cls-1" d="M191,118.1a5.62,5.62,0,0,0-3.66,1.65l-9.42,13c-.61,1.06-.12,1.9,1.09,1.9h16.65a3,3,0,0,0,2.79-2.12l4.18-12.4a1.38,1.38,0,0,0-1.37-2Z"/><path class="cls-1" d="M154.52,172.75a3.44,3.44,0,0,0,3,2.06h11.67a1.63,1.63,0,0,0,1.66-2.13l-2.14-12.24a2.49,2.49,0,0,0-2.42-2.2H153.16a1.82,1.82,0,0,0-1.86,2.18Z"/><path class="cls-1" d="M174.51,172.68a3.06,3.06,0,0,0,2.79,2.13h17.56a1.89,1.89,0,0,0,1.92-2.19l-1.08-12.18a2.34,2.34,0,0,0-2.31-2.2h-19.2a1.94,1.94,0,0,0-2,2.19Z"/><path class="cls-1" d="M151.37,152.57a1.8,1.8,0,0,0,1.83,2.17h13.11a2.54,2.54,0,0,0,2.45-2.2l2.3-12.24a1.61,1.61,0,0,0-1.63-2.13H157.88a3.55,3.55,0,0,0-3,2Z"/><path class="cls-1" d="M211.33,106.79c.84-.87.59-1.26-.55-.85l-15.93,7.51c-1,.63-.89,1.14.32,1.14h8a4.75,4.75,0,0,0,3.45-1.81Z"/><path class="cls-1" d="M159.12,133c-.76.93-.41,1.69.81,1.69h10.86a4.09,4.09,0,0,0,3.25-1.93l8.45-12.9c.75-1,.38-1.73-.84-1.73h-5a7.19,7.19,0,0,0-3.91,1.39Z"/><path class="cls-1" d="M185.27,114.59a7.36,7.36,0,0,0,3.91-1.37l5.94-4.28c1-.66.92-.87-.22-.46l-12.65,5.17c-1.1.53-1,.94.21.94Z"/><path class="cls-1" d="M275.78,154.74a1.9,1.9,0,0,0,1.93-2.19l-2.47-12.26a3.09,3.09,0,0,0-2.81-2.12H255a1.88,1.88,0,0,0-1.9,2.19l1.17,12.18a2.36,2.36,0,0,0,2.33,2.2Z"/><path class="cls-1" d="M226.75,192.68a2.21,2.21,0,0,0,2.2,2.2h11.81c1.22,0,2.22,0,2.23,0l0,0c2.43-4.82,5.09-14.37,5.09-14.37a1.6,1.6,0,0,0-1.62-2.12H229a2.21,2.21,0,0,0-2.2,2.2Z"/><path class="cls-1" d="M226.75,172.61a2.21,2.21,0,0,0,2.2,2.2h18.23a2.62,2.62,0,0,0,2.5-2.19l1.11-12.18a2.07,2.07,0,0,0-2.08-2.2H229a2.21,2.21,0,0,0-2.2,2.2Z"/><path class="cls-1" d="M226.75,152.54a2.21,2.21,0,0,0,2.2,2.2H248.7a2.05,2.05,0,0,0,2.06-2.2l-1.2-12.18a2.61,2.61,0,0,0-2.52-2.19H229a2.21,2.21,0,0,0-2.2,2.2Z"/><path class="cls-1" d="M272.41,180.23c.59-1.06.09-1.92-1.13-1.92H254.47a3,3,0,0,0-2.76,2.13l-4.06,12.39a1.41,1.41,0,0,0,1.41,2h10.66a5.49,5.49,0,0,0,3.64-1.68Z"/><path class="cls-1" d="M265.53,198.38a7.14,7.14,0,0,0-3.91,1.4l-6.75,5c-1,.65-.91.86.23.46L269,199.35c1.1-.54,1-1-.22-1Z"/><path class="cls-1" d="M226.75,132.46a2.2,2.2,0,0,0,2.2,2.2h17.37a1.57,1.57,0,0,0,1.6-2.11s-2.58-9-4.91-13.67l-.14-.26c-.15-.29-1.26-.52-2.47-.52H229a2.21,2.21,0,0,0-2.2,2.2Z"/><path class="cls-1" d="M298.7,160.42a1.84,1.84,0,0,0-1.87-2.18H283.71a2.5,2.5,0,0,0-2.42,2.2l-2.14,12.24a1.63,1.63,0,0,0,1.66,2.13h11.63c1.22,0,2.21,0,2.21,0s.36-.88.79-2Z"/><path class="cls-1" d="M247.27,198.38a4.55,4.55,0,0,0-3.41,1.84l-5.21,6.67c-.82.87-.57,1.26.56.85l16.88-8.18c1-.65.86-1.18-.35-1.18Z"/><path class="cls-1" d="M239.58,200.06c.79-.93.44-1.68-.77-1.68H229a2.21,2.21,0,0,0-2.2,2.21v7a1.3,1.3,0,0,0,2,1.27Z"/><path class="cls-1" d="M296.8,154.74a1.8,1.8,0,0,0,1.83-2.17l-3.48-12.36a3.55,3.55,0,0,0-3-2H280.56a1.6,1.6,0,0,0-1.62,2.13l2.31,12.24a2.5,2.5,0,0,0,2.44,2.2Z"/><path class="cls-1" d="M262.64,119.75A5.62,5.62,0,0,0,259,118.1H248.72a1.38,1.38,0,0,0-1.37,2l4.17,12.4a3.07,3.07,0,0,0,2.79,2.12H271c1.22,0,1.7-.84,1.09-1.9Z"/><path class="cls-1" d="M277.25,119.49a7.25,7.25,0,0,0-3.92-1.39h-5c-1.21,0-1.59.77-.84,1.73l8.46,12.9a4,4,0,0,0,3.25,1.93h10.85c1.22,0,1.58-.76.81-1.69Z"/><path class="cls-1" d="M228.76,104.82a1.32,1.32,0,0,0-2,1.3v6.28a2.2,2.2,0,0,0,2.2,2.19h9.41c1.22,0,1.55-.74.74-1.64Z"/><path class="cls-1" d="M291.35,180c.75-.95.38-1.73-.83-1.73h-11a4,4,0,0,0-3.22,1.95l-8.15,12.87c-.73,1-.34,1.75.88,1.75h4.82a6.21,6.21,0,0,1,2.21.19,7.07,7.07,0,0,0,1.69-1.23Z"/><path class="cls-1" d="M277.77,160.43a1.94,1.94,0,0,0-2-2.19H256.62a2.35,2.35,0,0,0-2.32,2.2l-1.08,12.18a1.89,1.89,0,0,0,1.92,2.19h17.55a3.07,3.07,0,0,0,2.79-2.13Z"/><path class="cls-1" d="M243.42,112.78a4.71,4.71,0,0,0,3.44,1.81h8c1.2,0,1.35-.51.32-1.14l-15.94-7.51c-1.13-.41-1.38,0-.55.85Z"/><path class="cls-1" d="M260.82,113.22a7.33,7.33,0,0,0,3.92,1.37h2.79c1.21,0,1.31-.41.21-.94l-12.64-5.17c-1.14-.41-1.25-.2-.23.46Z"/><path class="cls-1" d="M249,248.34a12.17,12.17,0,0,1-20.84-1l-.73-1.3c-6.46-11.51-10.36-18.57-11.58-21l-2.33-4.62-2.4,4.58c-1.62,3.14-9.93,21-13.48,28.62-.68,1.46-2.41,4.84-2.57,5.18l6-.11c.17-.35.64-1.37,1.33-2.84,2.44-5.24,7.91-17,11.13-23.78,3,5.48,7.45,13.4,9.23,16.56.4.71.64,1.15.69,1.21A17.47,17.47,0,0,0,255,248.34Z"/><path class="cls-1" d="M238.85,224.07a17.43,17.43,0,0,0-15.69,9.8l3.46,5.53a24.7,24.7,0,0,1,1.24-3.1A12.17,12.17,0,0,1,249,234.79h6A17.46,17.46,0,0,0,238.85,224.07Z"/><path class="cls-1" d="M223.74,316.61c-.57-.42-57.89-42.3-79.13-100.13-12.4-33.76-20.71-84.72-20.71-111.15V103.9l1.27-.6C136,98.22,225,68.41,225,68.41s89,29.81,99.82,34.89l1.28.6v1.43c0,26.45-8.33,77.41-20.71,111.15-21.21,57.75-78.56,99.71-79.13,100.13l-1.26.9ZM225,72.9S146,99.07,128.53,106.68l-.26.11v.3c.34,26,8.25,74.67,20.42,107.81,18.89,51.46,66.65,89.75,76.05,96.91l.25.19.26-.19c9.38-7.16,57.15-45.47,76-96.91,12.18-33.14,20.09-81.76,20.42-107.81v-.3l-.27-.11C304.05,99.07,225,73.13,225,72.9Z"/><path class="cls-1" d="M224.06,302c-.53-.37-52.38-38.06-71.71-90.71-11.24-30.59-18.78-76.8-18.78-100.76v-1.08l1-.45c9.84-4.6,90.46-31.63,90.46-31.63s80.62,27,90.46,31.63l1,.45v1.08c0,24-7.55,70.17-18.78,100.76-19.31,52.65-71.18,90.34-71.7,90.71l-.94.68ZM225,80.71s-76.27,25.68-87.87,30.77l-.26.11v.31c.28,23.65,7.45,67.92,18.56,98.17,9.84,26.83,28.32,49.6,42.94,64.65,8.43,8.84,20,19.24,26.63,24h0c6-4.37,17.18-14.56,25.57-23,15-15,33.94-38.31,44-65.71,11.11-30.25,18.28-74.52,18.56-98.17v-.31l-.27-.11C301,106.27,225,80.71,225,80.71Z"/><path class="cls-1" d="M234.45,54.41l6-37.49a62.87,62.87,0,0,1-7.23-6.29l-3.21,43.78Zm-9.46,0h2.1l3.43-46.74A46.1,46.1,0,0,1,225,0a45.83,45.83,0,0,1-5.51,7.67l3.42,46.74Zm17,0,8-31.68a62.15,62.15,0,0,1-6.83-3.93l-5.73,35.61Zm9.15,0,8.1-28A62.23,62.23,0,0,1,252.72,24l-7.66,30.41Zm-54.8,0-8.61-26.83a41.2,41.2,0,0,1-7.49-2.51l10.82,28.59Zm23.58,0-3.22-43.78a62.71,62.71,0,0,1-7.22,6.29l6,37.49Zm39-.75,10.81-28.59a41.2,41.2,0,0,1-7.49,2.51l-8.6,26.83Zm-54,.75L197.27,24a61.41,61.41,0,0,1-6.55,2.44l8.11,28Zm7.64,0L206.82,18.8A61.23,61.23,0,0,1,200,22.73l8,31.68ZM195.09,68.9,225,62.4l30.12,6.5,3.83-12.82H191Z"/><path class="cls-1" d="M111.28,92.18l7,6.4,72.75-28.41-2.87-7.73ZM182,67.24s1.95,1.26,2.22,2a1.44,1.44,0,0,1-.8,1.82,1.38,1.38,0,0,1-1.79-.82C181.37,69.5,182,67.24,182,67.24Zm-5.89,2.29s1.94,1.26,2.22,2a1.42,1.42,0,0,1-.81,1.83,1.37,1.37,0,0,1-1.78-.82A8.58,8.58,0,0,1,176.13,69.53Zm-5.88,2.3s1.94,1.26,2.22,2a1.44,1.44,0,0,1-.8,1.84,1.38,1.38,0,0,1-1.79-.82C169.61,74.09,170.25,71.83,170.25,71.83Zm-5.88,2.3s1.94,1.25,2.21,2a1.42,1.42,0,0,1-.8,1.82,1.36,1.36,0,0,1-1.78-.81C163.72,76.4,164.37,74.13,164.37,74.13Zm-5.89,2.3s2,1.26,2.21,2a1.42,1.42,0,0,1-.8,1.83,1.38,1.38,0,0,1-1.78-.82C157.84,78.69,158.48,76.43,158.48,76.43Zm-5.88,2.3s1.93,1.25,2.21,2a1.44,1.44,0,0,1-.79,1.84,1.39,1.39,0,0,1-1.79-.83C152,81,152.6,78.73,152.6,78.73ZM146.71,81s1.94,1.26,2.22,2a1.44,1.44,0,0,1-.8,1.83,1.36,1.36,0,0,1-1.78-.83C146.07,83.29,146.71,81,146.71,81Zm-5.89,2.31s2,1.25,2.23,2a1.45,1.45,0,0,1-.81,1.83,1.37,1.37,0,0,1-1.78-.82C140.19,85.59,140.82,83.33,140.82,83.33Zm-5.88,2.29s1.94,1.26,2.21,2a1.41,1.41,0,0,1-.78,1.82,1.38,1.38,0,0,1-1.8-.81C134.3,87.88,134.94,85.62,134.94,85.62Zm-5.89,2.3s2,1.25,2.21,2a1.42,1.42,0,0,1-.79,1.83,1.37,1.37,0,0,1-1.78-.83C128.41,90.19,129.05,87.92,129.05,87.92Zm-5.88,2.3s2,1.26,2.22,2a1.42,1.42,0,0,1-.8,1.83,1.37,1.37,0,0,1-1.79-.82C122.53,92.48,123.17,90.22,123.17,90.22Z"/><polygon class="cls-1" points="107.98 89.15 186.68 58.21 187.63 60.83 110.27 91.24 107.98 89.15"/><path class="cls-1" d="M86.1,83.69l0,0a1.34,1.34,0,0,0,.13-.27,2.11,2.11,0,0,0,0-.25,5.37,5.37,0,0,1-.73-.41.74.74,0,0,1,0,.53.08.08,0,0,1,0,0l0,0a.34.34,0,0,1-.16.08,4.38,4.38,0,0,0,.66.37.12.12,0,0,0,0,0S86.09,83.71,86.1,83.69Z"/><path class="cls-1" d="M97,88.8a2.18,2.18,0,1,1-2.81-1.27A2.17,2.17,0,0,1,97,88.8Z"/><path class="cls-1" d="M117.25,78.47a2.17,2.17,0,1,1-2.81-1.28A2.17,2.17,0,0,1,117.25,78.47Z"/><path class="cls-1" d="M141,68.85A2.18,2.18,0,1,1,137,70.38,2.18,2.18,0,0,1,141,68.85Z"/><path class="cls-1" d="M165.9,60.24A2.18,2.18,0,1,1,163.09,59,2.18,2.18,0,0,1,165.9,60.24Z"/><path class="cls-1" d="M179.31,52.49a12.07,12.07,0,0,1-6.07,2.25,11.93,11.93,0,0,1-6.55-2c-1.66-.94-1.84-3-1.29-4.65s2.71-3.37,4.9-2.37a5,5,0,0,0-6-2.58c-.17-2.78-1.22-5.58-3-5.81a2.2,2.2,0,0,0-2.09,1.25,10.16,10.16,0,0,0-.72-1.14l.26-.07a2.26,2.26,0,1,0-1.6-4.22,1.59,1.59,0,0,0-.31.17.28.28,0,0,0,0-.11,2.56,2.56,0,1,0-4.8,1.81.26.26,0,0,1,.05.09,1.89,1.89,0,0,0-.34.09,2.25,2.25,0,1,0,1.59,4.21.46.46,0,0,0,.22-.11,11.47,11.47,0,0,0,.22,1.35,2.19,2.19,0,0,0-2.39.43c-1.22,1.37-.16,4.15,1.54,6.35a5,5,0,0,0-3,6c1-2.18,3.75-2.21,5.24-1.44s1.65,3.19,1,4.66c-1.28,2.85-5.2,4.33-6.93,4.81a8.7,8.7,0,0,1-7.45-1.16c-2.13-1.73-3.28-4.22-2.73-5.87s2.7-3.37,4.9-2.38a4.84,4.84,0,0,0-5-2.75c-.06-3.38-1.27-7-3.49-7.28A2.54,2.54,0,0,0,133,43.46a11.22,11.22,0,0,0-.82-1.31l.28-.07a2.59,2.59,0,1,0-1.83-4.84c-.13,0-.25.12-.37.18a.5.5,0,0,0,0-.12,2.94,2.94,0,1,0-5.51,2.08.37.37,0,0,1,.05.11,1.72,1.72,0,0,0-.39.1,2.59,2.59,0,1,0,1.82,4.84,2.24,2.24,0,0,0,.27-.13,12.7,12.7,0,0,0,.24,1.53,2.53,2.53,0,0,0-2.74.5c-1.47,1.66,0,5.13,2.11,7.71a4.87,4.87,0,0,0-2.28,5.6c1-2.19,3.74-2.21,5.24-1.45s2.29,3.51,1.83,6.22A8.71,8.71,0,0,1,126,70.19c-1.62.79-5.55,2.26-8.39,1-1.47-.66-2.89-2.48-2.34-4.14s2.72-3.37,4.89-2.38a5,5,0,0,0-6.22-2.5c-.17-2.78-1.21-5.57-3-5.8a2.2,2.2,0,0,0-2.08,1.25c-.24-.41-.48-.79-.72-1.15a.53.53,0,0,0,.24-.06,2.25,2.25,0,1,0-1.59-4.21,3.31,3.31,0,0,0-.33.15l0-.1a2.56,2.56,0,0,0-4.8,1.81s0,.06,0,.1l-.35.09a2.25,2.25,0,0,0,1.59,4.22,1.85,1.85,0,0,0,.24-.11,11.4,11.4,0,0,0,.21,1.33,2.18,2.18,0,0,0-2.39.44c-1.21,1.36-.14,4.16,1.56,6.36a5,5,0,0,0-2.79,5.88c1-2.19,3.76-2.21,5.25-1.45a5.54,5.54,0,0,1,2.51,5.36c-.37,3.11-1.29,4.34-5.07,6a10.9,10.9,0,0,1-3.26.74c-2.36-.19-3.48-1.39-3.69-3,0-.31,0-.61,0-.93,0-2.08-.74-4.37-2.1-4.54a1.48,1.48,0,0,0-1.42.86c-.9-1.65-2.07-2.54-3-2.19s-1.19,1.76-.78,3.6a1.5,1.5,0,0,0-1.64.3c-.62.69-.36,1.93.28,3.14a6.74,6.74,0,0,0-2.09-1h0l-.42-.09h-.54l-.09,0h0a1.16,1.16,0,0,0-.8.39,4,4,0,0,0-.87-.33h0a3,3,0,0,0-.41-.08h-.15a.86.86,0,0,0-.22,0h-.15L81,79h0a1.17,1.17,0,0,0-.85.43s0,0,0,0,0,0,0,0a1.17,1.17,0,0,0-.13.95h0a1,1,0,0,0,.06.23h0c0,.07.06.15.1.23h0a3.17,3.17,0,0,0,.28.49h0a6.38,6.38,0,0,0,1.82,1.76l.12.07a5.09,5.09,0,0,0-2.66,3.11l0,.19c-.89,5.82,6,9.08,14.49,7.16-5.35-.37-10-2.75-9.47-6.1.53-2,3.19-2.75,6.53-2.61,1.36.06,2.78.33,4.57.47,3.21.22,4.39.52,7.61-.68,4.27-1.62,7.28-4.6,7.81-6.77a16.71,16.71,0,0,0,.48-5.41,9.26,9.26,0,0,0,1.73,1.14c5.12,2.52,10.68.09,13.56-1a14.12,14.12,0,0,0,7.19-6.7,13.71,13.71,0,0,0,1.46-5.37,13.72,13.72,0,0,0,4.64,3.08,14.07,14.07,0,0,0,9.82.28C153,63,158.77,61.12,161,55.85a8.9,8.9,0,0,0,.55-2A36.3,36.3,0,0,0,168.06,57c2.57.89,5.18,1.36,10.06-.48,3.09-1.18,6.19-5.78,4.95-10.53C183,47.21,182.1,49.86,179.31,52.49ZM83.11,82.88a3,3,0,0,1-.45-.27,5.83,5.83,0,0,1-1.73-1.7h0a.56.56,0,0,1-.07-.13l0-.07a.32.32,0,0,0,0-.09.3.3,0,0,1,0-.1l0-.06,0-.1a.13.13,0,0,0,0-.06.17.17,0,0,1,0-.07.19.19,0,0,1,0-.08v0a.31.31,0,0,1,0-.1h0l0-.08,0,0a.08.08,0,0,0,0,0l.07-.06h0l.1,0h0l.11,0h0l.09,0h.23l.14,0h0a4.83,4.83,0,0,1,1.14.35,1.19,1.19,0,0,0,0,.42v0l.06.22v0c0,.07.06.14.11.23h0a2.68,2.68,0,0,0,.27.49h0a5.7,5.7,0,0,0,.91,1A9.52,9.52,0,0,0,83.11,82.88Zm4.67-1a11.8,11.8,0,0,0-2.91.35A5.51,5.51,0,0,1,83.66,81h0a1,1,0,0,1-.08-.14l0-.06a.42.42,0,0,1,0-.1.73.73,0,0,1-.05-.09s0,0,0-.07a0,0,0,0,1,0,0l0-.07a.17.17,0,0,1,0-.07.14.14,0,0,0,0-.06v-.13a.22.22,0,0,1,0-.08s0,0,0,0a.13.13,0,0,1,0-.08s0,0,0,0l0,0a.16.16,0,0,1,.08-.06h0a.08.08,0,0,1,.07,0s0,0,0,0h0l.11,0h.54a5.67,5.67,0,0,1,2.36,1.11,5.79,5.79,0,0,1,1.12,1.07Zm.7-.86c-1.2-1.47-1.66-3-1.24-3.49.22-.24.78-.16,1.44.21h0a6.57,6.57,0,0,1,1.69,1.41,7.62,7.62,0,0,1,1.25,1.94ZM91.26,79a4.15,4.15,0,0,0-.27-.32,7.83,7.83,0,0,0-1.76-1.51c-.57-1.87-.31-3.12.11-3.28s1.51.75,2.24,2.39a7.82,7.82,0,0,0-.32,2.29Zm3.28,1.67-.46.53-1.54,0a2.18,2.18,0,0,1-.11-.27h0a7.47,7.47,0,0,1-.35-2.32,7,7,0,0,1,.33-2.18c.25-.71.63-1.17.94-1.11C94,75.34,94.74,77,94.74,79A7.27,7.27,0,0,1,94.54,80.66Zm12.67-27.39a1.06,1.06,0,1,1-.61,1.37A1.06,1.06,0,0,1,107.21,53.27Zm-3.65-1.44a1.37,1.37,0,1,1-.8,1.77A1.38,1.38,0,0,1,103.56,51.83Zm-1,5.48a1.07,1.07,0,0,1-1.37-.61,1.06,1.06,0,0,1,.62-1.37,1.06,1.06,0,1,1,.75,2Zm5.79,8.83a3.37,3.37,0,0,0,.13.38,4.15,4.15,0,0,0-.41-.27,5.76,5.76,0,0,0-4.32-.27c-1.76-2.14-2.43-4.42-1.82-5.09.31-.35,1.14-.23,2.1.31h0a9.67,9.67,0,0,1,2.48,2.06,11.71,11.71,0,0,1,1.84,2.87Zm-.56-3.8c0,.21,0,.42,0,.63-.13-.17-.27-.33-.4-.48a11.17,11.17,0,0,0-2.59-2.21c-.82-2.72-.43-4.54.17-4.76.27-.1.63,0,1,.34l.17.14a9.16,9.16,0,0,1,2.06,3A11.46,11.46,0,0,0,107.75,62.34ZM110,65.52a5.8,5.8,0,0,0-.25.85,4.53,4.53,0,0,1-.27-.66h0a10.68,10.68,0,0,1-.51-3.37,10.13,10.13,0,0,1,.48-3.19c.37-1,.92-1.69,1.38-1.63.91.11,1.92,2.29,2,5.09A5.85,5.85,0,0,0,110,65.52Zm23.66-20.26c.42-1.19,1-1.93,1.58-1.86,1.09.13,2.3,2.82,2.31,6.2a5.93,5.93,0,0,0-3.82,3.28.18.18,0,0,1,0-.09h0a12.27,12.27,0,0,1-.59-3.87A11.48,11.48,0,0,1,133.64,45.26Zm-2.54-6.75a1.22,1.22,0,1,1-.71,1.57A1.23,1.23,0,0,1,131.1,38.51Zm-4.2-1.65a1.58,1.58,0,1,1-.91,2A1.58,1.58,0,0,1,126.9,36.86Zm1.61,4.23a1.34,1.34,0,0,1,1.19.4l.18.15a10.06,10.06,0,0,1,2.38,3.44,12.81,12.81,0,0,0-.55,3.84c0,.24,0,.48,0,.73-.16-.2-.32-.38-.48-.56a12.47,12.47,0,0,0-2.95-2.53C127.35,43.44,127.81,41.35,128.51,41.09Zm-2.81,2.06a1.21,1.21,0,1,1-.84-2.28,1.21,1.21,0,1,1,.84,2.28Zm1.64,10.29c-2.23-2.56-3.08-5.37-2.36-6.2.37-.4,1.31-.25,2.42.38h0A11.29,11.29,0,0,1,130.24,50a12.43,12.43,0,0,1,2.1,3.29h0c.08.22.14.41.21.61-.16-.11-.34-.22-.52-.32A5.8,5.8,0,0,0,127.34,53.44ZM157.58,34.3a1.06,1.06,0,1,1-.63,1.37A1.07,1.07,0,0,1,157.58,34.3Zm-3.66-1.44a1.37,1.37,0,1,1-.8,1.77A1.39,1.39,0,0,1,153.92,32.86Zm-1,5.48a1.06,1.06,0,0,1-1.37-.62,1.06,1.06,0,1,1,1.37.62Zm5.77,8.84a5,5,0,0,1,.24.68,6.39,6.39,0,0,0-.75-.48,5.9,5.9,0,0,0-4.06-.32c-1.78-2.15-2.46-4.45-1.85-5.14.32-.35,1.15-.22,2.11.32a9.72,9.72,0,0,1,2.47,2.07,10.89,10.89,0,0,1,1.84,2.87ZM158.12,44l-.41-.48a11.24,11.24,0,0,0-2.57-2.2,8.75,8.75,0,0,1-.42-3.61,1.43,1.43,0,0,0,0-.23c.1-.5.29-.83.56-.93.6-.23,2.09.87,3.27,3.47a11,11,0,0,0-.48,3.35C158.1,43.58,158.11,43.8,158.12,44Zm2,2.65c-.05.15-.09.31-.14.46,0-.12-.09-.23-.13-.36h0a10.69,10.69,0,0,1-.53-3.38,10.06,10.06,0,0,1,.49-3.18h0c.37-1,.9-1.69,1.38-1.64.9.12,1.89,2.27,2,5A5.74,5.74,0,0,0,160.08,46.65Z"/><path class="cls-1" d="M261.8,62.44l-2.87,7.73,72.75,28.41,7-6.4Zm6.54,7.79a1.38,1.38,0,0,1-1.79.82,1.45,1.45,0,0,1-.8-1.82c.28-.73,2.22-2,2.22-2S268.61,69.5,268.34,70.23Zm5.89,2.3a1.38,1.38,0,0,1-1.78.82,1.42,1.42,0,0,1-.8-1.83c.26-.73,2.22-2,2.22-2S274.5,71.8,274.23,72.53Zm5.88,2.3a1.37,1.37,0,0,1-1.78.82,1.44,1.44,0,0,1-.8-1.84c.27-.72,2.21-2,2.21-2S280.38,74.09,280.11,74.83Zm5.89,2.3a1.37,1.37,0,0,1-1.78.81,1.42,1.42,0,0,1-.81-1.82c.28-.74,2.21-2,2.21-2S286.27,76.4,286,77.13Zm5.89,2.3a1.4,1.4,0,0,1-1.8.82,1.43,1.43,0,0,1-.79-1.83c.26-.73,2.22-2,2.22-2A8.54,8.54,0,0,1,291.89,79.43Zm5.87,2.29a1.38,1.38,0,0,1-1.78.83,1.43,1.43,0,0,1-.79-1.84c.26-.73,2.2-2,2.2-2S298,81,297.76,81.72ZM303.65,84a1.37,1.37,0,0,1-1.79.83,1.43,1.43,0,0,1-.79-1.83c.27-.73,2.22-2,2.22-2S303.93,83.29,303.65,84Zm5.89,2.31a1.38,1.38,0,0,1-1.79.82,1.44,1.44,0,0,1-.8-1.83c.27-.73,2.22-2,2.22-2A8.51,8.51,0,0,1,309.54,86.32Zm5.88,2.3a1.36,1.36,0,0,1-1.78.81,1.42,1.42,0,0,1-.8-1.82c.27-.73,2.21-2,2.21-2S315.69,87.88,315.42,88.62Zm5.89,2.29a1.38,1.38,0,0,1-1.79.83,1.44,1.44,0,0,1-.8-1.83c.27-.74,2.22-2,2.22-2S321.58,90.19,321.31,90.91Zm5.88,2.3a1.37,1.37,0,0,1-1.79.82,1.44,1.44,0,0,1-.8-1.83c.27-.72,2.23-2,2.23-2S327.46,92.48,327.19,93.21Z"/><polygon class="cls-1" points="342.01 89.15 263.32 58.21 262.37 60.83 339.73 91.24 342.01 89.15"/><path class="cls-1" d="M363.9,83.69l0,0a1.38,1.38,0,0,1-.14-.27,2.11,2.11,0,0,1,0-.25,6.14,6.14,0,0,0,.74-.41.75.75,0,0,0,0,.53l0,0s0,0,0,0a.45.45,0,0,0,.17.08,4.55,4.55,0,0,1-.68.37l0,0S363.9,83.71,363.9,83.69Z"/><path class="cls-1" d="M353,88.8a2.18,2.18,0,1,0,2.8-1.27A2.19,2.19,0,0,0,353,88.8Z"/><path class="cls-1" d="M332.74,78.47a2.18,2.18,0,1,0,2.81-1.28A2.17,2.17,0,0,0,332.74,78.47Z"/><path class="cls-1" d="M309,68.85A2.18,2.18,0,0,0,313,70.38,2.18,2.18,0,0,0,309,68.85Z"/><path class="cls-1" d="M284.09,60.24a2.18,2.18,0,0,0,1.28,2.81A2.18,2.18,0,0,0,286.9,59,2.19,2.19,0,0,0,284.09,60.24Z"/><path class="cls-1" d="M266.93,46c-1.24,4.75,1.84,9.35,4.94,10.53,4.88,1.84,7.49,1.37,10.06.48a36.3,36.3,0,0,0,6.55-3.13,9.46,9.46,0,0,0,.55,2c2.19,5.27,8,7.11,10.84,8.19a14.09,14.09,0,0,0,9.83-.28,13.63,13.63,0,0,0,4.64-3.08,13.71,13.71,0,0,0,1.46,5.37,14.1,14.1,0,0,0,7.2,6.7c2.88,1.09,8.43,3.52,13.56,1a9.26,9.26,0,0,0,1.73-1.14,16.7,16.7,0,0,0,.47,5.41c.54,2.17,3.54,5.15,7.82,6.77,3.21,1.2,4.4.9,7.6.68,1.79-.14,3.22-.41,4.57-.47,3.35-.14,6,.6,6.54,2.61.56,3.35-4.13,5.73-9.48,6.1,8.51,1.92,15.39-1.34,14.5-7.16l0-.19a5.15,5.15,0,0,0-2.66-3.11,1.05,1.05,0,0,0,.11-.07,6.42,6.42,0,0,0,1.83-1.76h0a4.27,4.27,0,0,0,.28-.49h0c0-.08.07-.16.1-.23h0a1,1,0,0,0,.05-.23h0a1.21,1.21,0,0,0-.12-.95l0,0s0,0,0,0A1.17,1.17,0,0,0,369,79h0l-.1,0h-.17a1,1,0,0,0-.23,0h-.13a3.58,3.58,0,0,0-.43.08h0a4.42,4.42,0,0,0-.87.33,1.16,1.16,0,0,0-.8-.39h0l-.09,0h-.55l-.4.09h0a6.7,6.7,0,0,0-2.08,1c.63-1.21.89-2.45.27-3.14a1.5,1.5,0,0,0-1.64-.3c.41-1.84.12-3.26-.78-3.6s-2.08.54-3,2.19a1.49,1.49,0,0,0-1.43-.86c-1.37.17-2.1,2.46-2.1,4.54,0,.32,0,.62.05.93-.21,1.65-1.32,2.85-3.68,3a11,11,0,0,1-3.27-.74c-3.78-1.64-4.69-2.87-5.06-6a5.52,5.52,0,0,1,2.5-5.36c1.49-.76,4.25-.74,5.25,1.45a4.94,4.94,0,0,0-2.8-5.88c1.72-2.2,2.79-5,1.57-6.36a2.17,2.17,0,0,0-2.39-.44,9.53,9.53,0,0,0,.2-1.33l.25.11a2.26,2.26,0,1,0,1.24-4.31.42.42,0,0,0,0-.1,2.56,2.56,0,1,0-4.8-1.81s0,.07,0,.1a2.52,2.52,0,0,0-.33-.15,2.25,2.25,0,1,0-1.58,4.21.5.5,0,0,0,.24.06c-.24.36-.49.74-.72,1.15a2.23,2.23,0,0,0-2.1-1.25c-1.8.23-2.84,3-3,5.8a5,5,0,0,0-6.21,2.5c2.18-1,4.26.81,4.89,2.38s-.87,3.48-2.34,4.14c-2.85,1.3-6.76-.17-8.39-1a8.67,8.67,0,0,1-4.82-5.78c-.48-2.71.31-5.33,1.82-6.22s4.26-.74,5.25,1.45a4.87,4.87,0,0,0-2.29-5.6c2.14-2.58,3.59-6,2.12-7.71a2.55,2.55,0,0,0-2.75-.5,12.7,12.7,0,0,0,.24-1.53l.28.13a2.59,2.59,0,0,0,1.82-4.84,1.86,1.86,0,0,0-.39-.1.37.37,0,0,1,.05-.11,2.94,2.94,0,1,0-5.5-2.08.56.56,0,0,0,0,.12l-.36-.18a2.59,2.59,0,1,0-1.83,4.84l.27.07a12.73,12.73,0,0,0-.82,1.31A2.54,2.54,0,0,0,314.6,42c-2.21.27-3.43,3.9-3.49,7.28a4.84,4.84,0,0,0-5,2.75c2.2-1,4.28.81,4.91,2.38s-.6,4.14-2.74,5.87a8.68,8.68,0,0,1-7.44,1.16c-1.75-.48-5.65-2-6.94-4.81-.67-1.47-.52-3.78,1-4.66s4.26-.74,5.25,1.44a5,5,0,0,0-3-6c1.7-2.2,2.76-5,1.55-6.35a2.17,2.17,0,0,0-2.38-.43,11.3,11.3,0,0,0,.2-1.35.65.65,0,0,0,.22.11,2.25,2.25,0,1,0,1.25-4.3.9.9,0,0,0,.05-.09,2.57,2.57,0,1,0-4.81-1.81s0,.06,0,.11a1.48,1.48,0,0,0-.33-.17,2.25,2.25,0,1,0-1.58,4.22l.25.07q-.36.51-.72,1.14a2.19,2.19,0,0,0-2.09-1.25c-1.81.23-2.85,3-3,5.81a5,5,0,0,0-6,2.58c2.18-1,4.27.81,4.89,2.37s.37,3.71-1.29,4.65a11.93,11.93,0,0,1-6.55,2,12.14,12.14,0,0,1-6.07-2.25C267.9,49.86,267,47.21,266.93,46Zm99,36.53a7.24,7.24,0,0,0,.92-1h0a3.45,3.45,0,0,0,.27-.49h0a1.22,1.22,0,0,1,.1-.23v0a1.42,1.42,0,0,1,.07-.22v0a2,2,0,0,0,0-.42,5,5,0,0,1,1.14-.35h0l.13,0h.23l.11,0h0l.1,0h0l.08,0h0l.08.06s0,0,0,0,0,0,0,0,0,0,0,.08h0a.31.31,0,0,1,0,.1v0a.19.19,0,0,1,0,.08v.07a.14.14,0,0,0,0,.06l0,.1s0,0,0,.06a.29.29,0,0,1,0,.1.36.36,0,0,0,0,.09.25.25,0,0,0,0,.07l-.07.13h0a5.78,5.78,0,0,1-1.72,1.7,3.67,3.67,0,0,1-.46.27A10.33,10.33,0,0,0,365.91,82.49Zm-3.7-.57h0a5.88,5.88,0,0,1,1.13-1.07,5.67,5.67,0,0,1,2.36-1.11h.53l.1,0h.05s0,0,.07,0h0a.16.16,0,0,1,.08.06s0,0,0,0l0,0s0,.06,0,.08v0a.22.22,0,0,1,0,.08v.05a.25.25,0,0,1,0,.08v.06s0,.05,0,.07a.19.19,0,0,1,0,.07,0,0,0,0,0,0,0l0,.07,0,.09s0,.06,0,.1a.21.21,0,0,1,0,.06.5.5,0,0,1-.08.14h0a5.38,5.38,0,0,1-1.19,1.32,11.94,11.94,0,0,0-2.92-.35Zm-3.82-.78a7.27,7.27,0,0,1,1.23-1.94,6.6,6.6,0,0,1,1.7-1.41h0c.65-.37,1.22-.45,1.44-.21.41.46-.05,2-1.24,3.49Zm.34-2.58a7.82,7.82,0,0,0-.32-2.29c.74-1.64,1.76-2.57,2.25-2.39s.68,1.41.11,3.28A7.65,7.65,0,0,0,359,78.67l-.27.32Zm-3.47.43c0-2,.73-3.65,1.38-3.72.32-.06.69.4.94,1.11a6.69,6.69,0,0,1,.34,2.18,7.47,7.47,0,0,1-.35,2.32h0c0,.1-.08.18-.11.27l-1.54,0-.46-.53A6.76,6.76,0,0,1,355.26,79ZM343.4,54.64a1.06,1.06,0,1,1-.63-1.37A1.08,1.08,0,0,1,343.4,54.64Zm3.83-1a1.36,1.36,0,0,1-1.76.8,1.37,1.37,0,1,1,1.76-.8Zm-.37,2.34a1.06,1.06,0,1,1,.62,1.37A1.06,1.06,0,0,1,346.86,55.94Zm-5.18,10.2a11.19,11.19,0,0,1,1.85-2.87A9.63,9.63,0,0,1,346,61.21h0c1-.54,1.78-.66,2.09-.31.62.67-.06,3-1.81,5.09a5.79,5.79,0,0,0-4.33.27c-.14.08-.27.18-.4.27.05-.12.07-.24.12-.38Zm.09-7.16a8.87,8.87,0,0,1,2.05-3,1.24,1.24,0,0,0,.18-.14,1.16,1.16,0,0,1,1-.34c.61.22,1,2,.17,4.76a10.93,10.93,0,0,0-2.58,2.21c-.14.15-.27.31-.4.48v-.63A11.82,11.82,0,0,0,341.77,59Zm-4.59,3.63c.09-2.8,1.1-5,2-5.09.46-.06,1,.59,1.36,1.63a9.58,9.58,0,0,1,.5,3.19,11,11,0,0,1-.51,3.37h0a6,6,0,0,1-.27.66,7.46,7.46,0,0,0-.26-.85A5.79,5.79,0,0,0,337.18,62.61ZM316.91,48.92a12.56,12.56,0,0,1-.58,3.87h0a.36.36,0,0,0,0,.09,6,6,0,0,0-3.82-3.28c0-3.38,1.22-6.07,2.3-6.2.54-.07,1.16.67,1.57,1.86A10.94,10.94,0,0,1,316.91,48.92Zm2.7-8.84a1.22,1.22,0,1,1-.71-1.57A1.23,1.23,0,0,1,319.61,40.08ZM324,38.89a1.57,1.57,0,1,1-2.94-1.11A1.57,1.57,0,1,1,324,38.89Zm-2.32,7.67a12.88,12.88,0,0,0-2.95,2.53,6.22,6.22,0,0,0-.46.56c0-.25,0-.49,0-.73a13.14,13.14,0,0,0-.54-3.84,9.79,9.79,0,0,1,2.37-3.44.9.9,0,0,0,.18-.15c.48-.37.9-.51,1.2-.4C322.19,41.35,322.63,43.44,321.68,46.56Zm1.9-5a1.22,1.22,0,1,1,.71,1.56A1.21,1.21,0,0,1,323.58,41.59Zm-5.63,12c-.18.1-.35.21-.51.32.07-.2.13-.39.2-.61h0A12.77,12.77,0,0,1,319.76,50a11.25,11.25,0,0,1,2.83-2.37h0c1.12-.63,2.05-.78,2.42-.38.73.83-.13,3.64-2.36,6.2A5.8,5.8,0,0,0,318,53.57ZM293,35.67a1.06,1.06,0,1,1-.63-1.37A1.07,1.07,0,0,1,293,35.67Zm3.83-1a1.37,1.37,0,1,1-.8-1.77A1.39,1.39,0,0,1,296.87,34.63ZM296.5,37a1.06,1.06,0,1,1,2,.75,1.06,1.06,0,1,1-2-.75Zm-5.15,10.21a10.84,10.84,0,0,1,1.83-2.87,9.89,9.89,0,0,1,2.47-2.07c1-.54,1.8-.67,2.11-.32.61.69-.07,3-1.85,5.14a5.87,5.87,0,0,0-4.05.32,5.65,5.65,0,0,0-.75.48,7,7,0,0,1,.24-.68Zm.55-3.81a11,11,0,0,0-.49-3.35c1.19-2.6,2.67-3.7,3.28-3.47.26.1.45.43.55.93a1.37,1.37,0,0,0,0,.23,8.92,8.92,0,0,1-.42,3.61,11.07,11.07,0,0,0-2.58,2.2l-.4.48C291.89,43.8,291.9,43.58,291.9,43.37Zm-5.06.22c.1-2.77,1.09-4.92,2-5,.46,0,1,.59,1.37,1.64h0a9.28,9.28,0,0,1,.49,3.18,11,11,0,0,1-.51,3.38h0l-.15.36c0-.15-.08-.31-.13-.46A5.71,5.71,0,0,0,286.84,43.59Z"/><path class="cls-2" d="M154.61,353c-1.25,0-1.32.22-1.32,1.78v13.84c0,4.3.51,8.22,5.4,8.22a5.6,5.6,0,0,0,2-.37c.67-.22,1.64-1,1.86-1,.59,0,.89.81.73,1.25a10.2,10.2,0,0,1-7.77,3.41c-6.36,0-7.69-3.55-7.69-8v-17c0-2-.08-2.15-1.56-2.15h-2.07a1.22,1.22,0,0,1-.22-1.55,15,15,0,0,0,4.74-2.29,19,19,0,0,0,3.11-4.37c.36-.15,1.25-.15,1.55.36v3.33c0,1.34.08,1.41,1.34,1.41h8.22A2.38,2.38,0,0,1,163,353Z"/><path class="cls-2" d="M182.11,338.72c5-3.88,11.33-5.79,18.41-5.79a52.41,52.41,0,0,1,12.07,1.64,5.18,5.18,0,0,0,1.91.27c.06,1.57.41,5.86.95,10a1.44,1.44,0,0,1-1.84.12c-1-4.63-4.09-9.95-14-9.95-10.43,0-19.3,6.62-19.3,20.73,0,14.31,9.07,22.21,20.26,22.21,8.78,0,12.67-5.72,14.23-9.74a1.45,1.45,0,0,1,1.78.27c-.48,3.55-2.25,8.05-3.27,9.34a13.41,13.41,0,0,0-2.39.68,39.84,39.84,0,0,1-10.77,1.57c-6.13,0-12-1.22-17-4.56a22,22,0,0,1-9.68-18.76A22.68,22.68,0,0,1,182.11,338.72Z"/><path class="cls-2" d="M256.05,364.18c0,9.26-6.37,15.92-15.62,15.92-8.51,0-15.18-6-15.18-15.26a15.57,15.57,0,0,1,15.78-16C249.31,348.86,256.05,355.08,256.05,364.18Zm-15.91-13.1c-4.89,0-8.51,4.67-8.51,12.8,0,6.74,3,14,9.55,14s8.5-6.81,8.5-12.52C249.68,359.08,247.17,351.08,240.14,351.08Z"/><path class="cls-2" d="M293.11,368.26c0,5.84.07,8.58,2.15,8.58a12.38,12.38,0,0,0,3.18-.73c.53.14.59,2-.07,2.36a54.69,54.69,0,0,0-9.77,2.37c-.45,0-.81-.22-.81-.6V379a8.2,8.2,0,0,0-.15-2.3h-.3c-3.26,2.22-5.78,3.41-9.33,3.41-8.22,0-13.7-6.44-13.7-14.22,0-10.36,7.85-17,17.92-17a15.37,15.37,0,0,1,5,.66c.38,0,.45-.44.45-1V337.31c0-4.37-.07-4.82-2.31-6.14l-.74-.46a1.14,1.14,0,0,1,0-1.47,52.92,52.92,0,0,0,8-3.11.81.81,0,0,1,.73.44c-.07,2.23-.22,5.92-.22,9.18Zm-5.47-11.11a4.35,4.35,0,0,0-.82-2.89,7.75,7.75,0,0,0-6.22-3.11c-6.73,0-10.22,5.85-10.22,12.29,0,6.74,3.78,13.11,11,13.11a9.06,9.06,0,0,0,5.7-2.08c.45-.44.52-1.55.52-2.74Z"/><path class="cls-2" d="M311.89,360.11c-1.92,0-2,.16-2,2,0,7.48,4.37,13.84,12.29,13.84,2.44,0,4.52-.73,6.81-3.62a1,1,0,0,1,1.33.88c-2.44,5-7.77,6.89-11.62,6.89A13.26,13.26,0,0,1,308,375.22a15.7,15.7,0,0,1-3.11-9.63c0-9.11,6-16.73,14.87-16.73,6.37,0,10.52,4.36,10.52,8.81a4.5,4.5,0,0,1-.3,1.92c-.22.45-1.25.52-4.37.52Zm4.59-2.22c5.48,0,7.11-.3,7.7-.74.23-.15.44-.44.44-1.4,0-2.08-1.4-4.67-5.7-4.67s-8.14,4-8.21,6.43c0,.16,0,.38.51.38Z"/><path class="cls-2" d="M343.29,357.81c0-2.88,0-3.25-2-4.59l-.66-.44a1,1,0,0,1,.08-1.33,58.5,58.5,0,0,0,7.47-3.63c.37.07.59.22.59.51v4.3c0,.37.07.59.22.67,2.6-2.15,5.41-4.44,8.14-4.44a3.06,3.06,0,0,1,3.34,2.95,3.29,3.29,0,0,1-3.18,3.42,2.74,2.74,0,0,1-1.63-.53,6.12,6.12,0,0,0-3.27-1.18,3.26,3.26,0,0,0-2.66,1.49c-.74,1-1,3.17-1,5.7v10.06c0,5.34.15,6.22,3,6.44l2.66.22a1.29,1.29,0,0,1-.15,1.85c-3.48-.14-5.62-.22-8.22-.22s-4.88.08-6.82.22a1.3,1.3,0,0,1-.13-1.85l1.41-.22c2.72-.44,2.81-1.1,2.81-6.44Z"/><path class="cls-2" d="M138.09,377.43l-2-.22c-3.17-.37-4.14-1.48-6.29-7.85L119.65,339.6c-1.11-3.25-2.29-6.66-3.25-9.92a1.07,1.07,0,0,0-1.12-.66,8.31,8.31,0,0,1-3.84,2.81c.22,1.18-.23,2.59-1.26,5.26l-7.56,20c-3.1,8.29-5.18,13.11-6.51,16.51-1,2.67-2.67,3.49-4.44,3.63l-2.44.22a1.44,1.44,0,0,0,.14,1.85c2-.06,4.66-.22,7.11-.22,3.48.08,5.77.08,7.7.22a1.2,1.2,0,0,0,.15-1.85l-2.45-.22c-1.78-.14-2.14-.58-2.14-1.48a28.76,28.76,0,0,1,1.62-6.14l2.6-7.78c.52-1.54,1-1.77,2.81-1.77h9.87l-.91-3h-7.85c-2.08,0-2.14-.07-1.56-1.77L111,342.41c.82-2.22,1.57-4,1.78-4.36h.15a49.11,49.11,0,0,1,1.7,4.66l3.3,9.92h0l2.86,8.65c.07.18.14.38.22.61L124.24,372a14.91,14.91,0,0,1,1,3.93c0,.75-1,1.19-2.59,1.33l-2.14.22a1.23,1.23,0,0,0,.15,1.85c2.14-.06,5-.22,8.51-.22,3.33,0,5.92.08,9,.22A1.46,1.46,0,0,0,138.09,377.43Z"/><path class="cls-2" d="M349,181.46c.89-1.4,11.62-7,11.51-7.11-3.39-2.59-10.79-.93-16.82-1.5-1.33-.12-5.81-1.6-7.29-1.69-2.22-.12-2.2,2-2.16,3.26,0,.12-.64,12.19-.64,17a3.45,3.45,0,0,0,.27,1.41c.09.19,4-3.5,5.27-4.66-1.63-1.71-1-8.28-1.08-11.06,0-1.07.47-1.69,1.06-1.07a16.5,16.5,0,0,0,9.88,5.47"/><path class="cls-2" d="M336.85,198.72c1.72,1.25,2.47.86,3.72,1.5a8.16,8.16,0,0,1,2.51,2.67,9.36,9.36,0,0,1,1,2.86,3,3,0,0,0,4.1,2.14c.8-.25,4-9.55,1.13-10.81-2-.91-3.42.81-4.69.65-.78-.1-.4-2.32-.39-2.4a1.72,1.72,0,0,0-1.32-1.6,9.8,9.8,0,0,0-1.33.2c-.19,0-4.75,4.79-4.76,4.79"/><path class="cls-2" d="M387.33,243a92.44,92.44,0,0,0,2.13,18.14,1.31,1.31,0,0,1-.53,1.69c-5.44,4.66-11.06,10.35-16,12.8-1.56.77-3.2,1.07-4.11,2.15-.78.92-.74,2.51-.71,3.72a8,8,0,0,1-2.13,6.1,3.17,3.17,0,0,0-.56.6c-1,1.93-.86,7,.73,7.87.84.47,4.63-2.89,6.07-5.53.27-.49-.59-2.64-.94-3.82a2.2,2.2,0,0,1,1.78-2.64,2.38,2.38,0,0,0,1.34-.63c.61-.65.47-1.94.13-3.05a2,2,0,0,1-.09-1.42c.08-.32,5.56-3.9,7.4-5.29,4-3,13.19-5.53,16.16-9.36.93-1.19,1.14-2.56-.09-3.64s-9.63-12.44-10.54-17.69"/><path class="cls-2" d="M450,235.35c.12.05-7-7.75-18.39-2.1-.06,0-6-4.51-7.85-6.15-.47-.41,1.24-5.47-4.07-10.54-4.33-4.13-17.93-11.05-23.63-21.78-3.45-6.54,2.27-20.54,1.42-32-.13-1.75-2.66-4.14-3.07-5.53-2.64-9.12-3.35-13-4.8-16.81a5.63,5.63,0,0,1-2.57,3.24c.83-1.34,2-4,1.07-6.45a11.7,11.7,0,0,0-.79-1.19,7.1,7.1,0,0,1-2,5.81c.36-.83,1.45-5.77.72-7.25-.31-.31-.65-.61-1-.9s-.47-.36-.7-.53a12.32,12.32,0,0,1-.77,6.37,20.57,20.57,0,0,0-.65-7.25,20.48,20.48,0,0,0-15.65-1.19,9.82,9.82,0,0,0-5.58,5.81l-26.27-4.62-.23.11.13.18,25.19,10.18c-.32,4.22.09,8.57-.49,11.45s-2,3.55-2,4.56c0,1.17,1.22,3.72,4,1.47.61-.49,1.11-1.51,2.26-1.28,1.86.38.41,2.86,1.94,3,2.36.17,1.23-3.89,1.45-5.11s1.79-7,4.66-6.59c2.6.36,2.17,2.08,2.19,4a17.27,17.27,0,0,1-.92,7.46c-1.3,1.11-10,9.87-12.66,14.08-.16.26-10.52,5.57-14.56,8.44-13.74,9.75-20.25,20.61-19.79,24.07,0,.26,2.54,5.19,4.1,8.17.24,1.65-.46,7.63,1.32,8,2.11.43,7.35-7.17,5.76-9.19-1.17-1.49-2.67-.8-3.19-1.65a2.57,2.57,0,0,1-.34-.62c-.23-.51,1.09-2,.66-3.34-.81-2.39-2.51-1.38-2.81-2.47a11.77,11.77,0,0,1-.45-2.69,4,4,0,0,1,.55-2.2c2.71-3.9,9.76-11.76,15.75-13,.39-.08,9.56,9.92,15.56,10.8.24,0,7.17,19.12,20.36,20.35-1.58,10.38,9.27,37.29,18.73,42.52,1.1.61,1,2.8.51,3.45s-13,12.35-18.47,18.14c-.66.7-.52,4.91-.6,5.47-.21,1.56-2.21,8.63-.88,9.64,1.77,1.35,8.79-3.8,6.5-6.56-.43-.53-2.74-1.51-1.78-3.16.5-.88,3.59-.4,4.57-2,.62-1,.09-3,.07-4s13.33-13.39,16.76-16.57a2.28,2.28,0,0,0,1.19-1.78,19.15,19.15,0,0,0-.2-2.58c-.17-1.26-9.11-12.15-1.61-17.41,2.57-1.79,11.82-7.53,14.12-14.46a26.67,26.67,0,0,1,5.23,4.55c-4.24,3.25-7.36,9.63-7.93,10.84-.1.22,4.06-3.17,7.71-4.18.13,0-11.6,15.35-11,22.49A25.56,25.56,0,0,1,424.59,254c.25-.2-10.63,21.95,3.2,36.76,0,0-4.62-15.11-2.18-19.72.06-.11,6.53,13.78,16.91,13.33.16,0-8.47-7.39-10.46-18.91a15.69,15.69,0,0,0,7.93,5.08c.42.09-8.57-10.9-3.08-19.06.25,6.5,4.53,10.62,6,11.08.22.06-3.25-8.21-.66-13.92,1.3,1.45,2.69,4,6.29,3.95a31.85,31.85,0,0,1-4.52-16.66C444.06,235.07,446.72,234,450,235.35Z"/><path class="cls-2" d="M366.88,128.74l.06,0,.07,0a23.42,23.42,0,0,1,6.94-1.08,21,21,0,0,1,9.91,2.39l.6.32.58.38.41.29c.27.18.52.38.78.57s.76.67,1.12,1l.22.23.69.74.5.65a14.35,14.35,0,0,1,.87,1.32l.11.17.66,1.26c1.33,2.74,2.23,6.14,3.47,10.84,1.39-6.21,3.21-12.39.35-20-1.51-4-8.87-15.91-27-13.2-12.3,1.84-19.06,13.77-19.06,13.77l11.73,5S364.23,129.84,366.88,128.74Z"/><path class="cls-2" d="M101,181.46c-.89-1.4-11.63-7-11.51-7.11,3.4-2.59,10.79-.93,16.82-1.5,1.32-.12,5.81-1.6,7.3-1.69,2.21-.12,2.19,2,2.16,3.26,0,.12.64,12.19.64,17a3.42,3.42,0,0,1-.28,1.41c-.09.19-4-3.5-5.27-4.66,1.63-1.71,1-8.28,1.08-11.06,0-1.07-.47-1.69-1.06-1.07a16.47,16.47,0,0,1-9.88,5.47"/><path class="cls-2" d="M113.14,198.72c-1.71,1.25-2.47.86-3.73,1.5a8.34,8.34,0,0,0-2.5,2.67,9.09,9.09,0,0,0-1,2.86,3,3,0,0,1-4.11,2.14c-.81-.25-3.94-9.55-1.12-10.81,2-.91,3.4.81,4.68.65.79-.1.4-2.32.4-2.4a1.71,1.71,0,0,1,1.31-1.6,10,10,0,0,1,1.33.2c.19,0,4.75,4.79,4.76,4.79"/><path class="cls-2" d="M62.67,243a92.43,92.43,0,0,1-2.14,18.14,1.32,1.32,0,0,0,.53,1.69c5.44,4.66,11.06,10.35,16,12.8,1.56.77,3.19,1.07,4.1,2.15.78.92.75,2.51.71,3.72a8.09,8.09,0,0,0,2.14,6.1,3.47,3.47,0,0,1,.55.6c1,1.93.87,7-.74,7.87-.83.47-4.62-2.89-6.05-5.53-.28-.49.58-2.64.94-3.82A2.21,2.21,0,0,0,77,284.08a2.3,2.3,0,0,1-1.34-.63c-.62-.65-.48-1.94-.15-3.05A2,2,0,0,0,75.6,279c-.09-.32-5.57-3.9-7.41-5.29-4-3-13.19-5.53-16.16-9.36-.93-1.19-1.15-2.56.09-3.64S61.75,248.25,62.67,243"/><path class="cls-2" d="M0,235.35c-.13.05,7-7.75,18.38-2.1.06,0,6-4.51,7.85-6.15.48-.41-1.23-5.47,4.07-10.54,4.34-4.13,17.93-11.05,23.62-21.78,3.46-6.54-2.25-20.54-1.42-32,.14-1.75,2.68-4.14,3.08-5.53,2.64-9.12,3.35-13,4.8-16.81A5.61,5.61,0,0,0,63,143.71c-.83-1.34-2-4-1.07-6.45a11.65,11.65,0,0,1,.78-1.19,7,7,0,0,0,2,5.81c-.34-.83-1.44-5.77-.71-7.25a12.66,12.66,0,0,1,1-.9c.22-.18.45-.36.7-.53a12.25,12.25,0,0,0,.76,6.37,20.8,20.8,0,0,1,.65-7.25,20.48,20.48,0,0,1,15.65-1.19,9.85,9.85,0,0,1,5.58,5.81l26.27-4.62.23.11-.13.18L89.46,142.79c.33,4.22-.08,8.57.49,11.45s2,3.55,2,4.56c0,1.17-1.22,3.72-4,1.47-.61-.49-1.11-1.51-2.26-1.28-1.86.38-.4,2.86-1.94,3-2.36.17-1.22-3.89-1.44-5.11s-1.8-7-4.67-6.59c-2.59.36-2.17,2.08-2.2,4a17.68,17.68,0,0,0,.93,7.46c1.3,1.11,10,9.87,12.66,14.08.17.26,10.52,5.57,14.56,8.44,13.75,9.75,20.25,20.61,19.8,24.07,0,.26-2.55,5.19-4.11,8.17-.25,1.65.46,7.63-1.31,8-2.1.43-7.35-7.17-5.77-9.19,1.17-1.49,2.67-.8,3.19-1.65a3,3,0,0,0,.34-.62c.24-.51-1.09-2-.65-3.34.8-2.39,2.5-1.38,2.8-2.47a12.42,12.42,0,0,0,.46-2.69,4.1,4.1,0,0,0-.55-2.2c-2.72-3.9-9.77-11.76-15.76-13-.4-.08-9.55,9.92-15.56,10.8-.25,0-7.16,19.12-20.36,20.35,1.58,10.38-9.26,37.29-18.74,42.52-1.09.61-.94,2.8-.5,3.45s13,12.35,18.47,18.14c.67.7.53,4.91.6,5.47.21,1.56,2.21,8.63.88,9.64-1.77,1.35-8.79-3.8-6.5-6.56.44-.53,2.74-1.51,1.79-3.16-.5-.88-3.61-.4-4.58-2-.61-1-.09-3-.06-4S44.1,270.59,40.67,267.41a2.26,2.26,0,0,1-1.2-1.78,19.11,19.11,0,0,1,.21-2.58c.17-1.26,9.11-12.15,1.6-17.41-2.55-1.79-11.81-7.53-14.11-14.46A26.45,26.45,0,0,0,22,235.73c4.23,3.25,7.36,9.63,7.92,10.84.1.22-4.05-3.17-7.71-4.18-.12,0,11.61,15.35,11,22.49A25.56,25.56,0,0,0,25.4,254c-.25-.2,10.63,21.95-3.19,36.76,0,0,4.61-15.11,2.17-19.72-.06-.11-6.53,13.78-16.91,13.33-.16,0,8.47-7.39,10.45-18.91A15.63,15.63,0,0,1,10,270.49c-.42.09,8.56-10.9,3.08-19.06-.24,6.5-4.52,10.62-6,11.08-.22.06,3.24-8.21.66-13.92-1.3,1.45-2.69,4-6.28,3.95a32.13,32.13,0,0,0,4.51-16.66C5.94,235.07,3.26,234,0,235.35Z"/><path class="cls-2" d="M83.12,128.74l-.07,0-.07,0a23.38,23.38,0,0,0-7-1.08,21,21,0,0,0-9.9,2.39l-.6.32-.57.38-.41.29c-.27.18-.54.38-.77.57-.4.33-.79.67-1.13,1l-.23.23-.69.74-.49.65a12.61,12.61,0,0,0-.88,1.32l-.1.17-.67,1.26c-1.33,2.74-2.23,6.14-3.47,10.84-1.39-6.21-3.21-12.39-.35-20,1.52-4,8.87-15.91,27-13.2,12.3,1.84,19.08,13.77,19.08,13.77l-11.73,5S85.77,129.84,83.12,128.74Z"/><path class="cls-2" d="M221.25,208.84a1.3,1.3,0,0,0,2-1.27v-7a2.2,2.2,0,0,0-2.19-2.21h-9.87c-1.21,0-1.55.75-.76,1.68Z"/><path class="cls-2" d="M206.13,200.22a4.52,4.52,0,0,0-3.41-1.84h-8.47c-1.21,0-1.37.53-.34,1.18l16.87,8.18c1.15.41,1.39,0,.57-.85Z"/><path class="cls-2" d="M223.24,180.51a2.2,2.2,0,0,0-2.19-2.2H203.52a1.59,1.59,0,0,0-1.62,2.12S204.55,190,207,194.8v0s1,0,2.24,0h11.81a2.2,2.2,0,0,0,2.19-2.2Z"/><path class="cls-2" d="M223.24,106.12a1.32,1.32,0,0,0-2-1.3L210.88,113c-.79.9-.46,1.64.76,1.64h9.41a2.19,2.19,0,0,0,2.19-2.19Z"/><path class="cls-2" d="M172.22,193.82a7.94,7.94,0,0,0,1.71,1.23,7,7,0,0,1,2.2-.17H181c1.22,0,1.6-.79.87-1.75l-8.15-12.87a4,4,0,0,0-3.22-1.95h-11c-1.22,0-1.59.78-.84,1.73Z"/><path class="cls-2" d="M223.24,120.3a2.2,2.2,0,0,0-2.19-2.2H209.6c-1.21,0-2.33.23-2.47.52l-.14.26c-2.34,4.63-4.92,13.67-4.92,13.67a1.58,1.58,0,0,0,1.6,2.11h17.38a2.19,2.19,0,0,0,2.19-2.2Z"/><path class="cls-2" d="M223.24,140.37a2.2,2.2,0,0,0-2.19-2.2H203a2.61,2.61,0,0,0-2.51,2.19l-1.21,12.18a2.06,2.06,0,0,0,2.07,2.2h19.75a2.2,2.2,0,0,0,2.19-2.2Z"/><path class="cls-2" d="M223.24,160.44a2.2,2.2,0,0,0-2.19-2.2H201.29a2.08,2.08,0,0,0-2.09,2.2l1.13,12.18a2.6,2.6,0,0,0,2.48,2.19h18.24a2.2,2.2,0,0,0,2.19-2.2Z"/><path class="cls-2" d="M188.37,199.78a7.14,7.14,0,0,0-3.89-1.4h-3.29c-1.22,0-1.31.43-.23,1l13.94,5.86c1.14.4,1.25.19.23-.46Z"/><path class="cls-2" d="M200.94,194.88a1.4,1.4,0,0,0,1.39-2l-4-12.39a3,3,0,0,0-2.76-2.13H178.71c-1.22,0-1.71.86-1.12,1.92l9,13a5.47,5.47,0,0,0,3.64,1.68Z"/><path class="cls-2" d="M196.88,140.36a1.88,1.88,0,0,0-1.91-2.19H177.56a3.1,3.1,0,0,0-2.81,2.12l-2.47,12.26a1.91,1.91,0,0,0,1.93,2.19h19.18a2.37,2.37,0,0,0,2.33-2.2Z"/><path class="cls-2" d="M191,118.1a5.62,5.62,0,0,0-3.66,1.65l-9.42,13c-.61,1.06-.12,1.9,1.09,1.9h16.65a3,3,0,0,0,2.79-2.12l4.18-12.4a1.38,1.38,0,0,0-1.37-2Z"/><path class="cls-2" d="M154.52,172.75a3.44,3.44,0,0,0,3,2.06h11.67a1.63,1.63,0,0,0,1.66-2.13l-2.14-12.24a2.49,2.49,0,0,0-2.42-2.2H153.16a1.82,1.82,0,0,0-1.86,2.18Z"/><path class="cls-2" d="M174.51,172.68a3.06,3.06,0,0,0,2.79,2.13h17.56a1.89,1.89,0,0,0,1.92-2.19l-1.08-12.18a2.34,2.34,0,0,0-2.31-2.2h-19.2a1.94,1.94,0,0,0-2,2.19Z"/><path class="cls-2" d="M151.37,152.57a1.8,1.8,0,0,0,1.83,2.17h13.11a2.54,2.54,0,0,0,2.45-2.2l2.3-12.24a1.61,1.61,0,0,0-1.63-2.13H157.88a3.55,3.55,0,0,0-3,2Z"/><path class="cls-2" d="M211.33,106.79c.84-.87.59-1.26-.55-.85l-15.93,7.51c-1,.63-.89,1.14.32,1.14h8a4.75,4.75,0,0,0,3.45-1.81Z"/><path class="cls-2" d="M159.12,133c-.76.93-.41,1.69.81,1.69h10.86a4.09,4.09,0,0,0,3.25-1.93l8.45-12.9c.75-1,.38-1.73-.84-1.73h-5a7.19,7.19,0,0,0-3.91,1.39Z"/><path class="cls-2" d="M185.27,114.59a7.36,7.36,0,0,0,3.91-1.37l5.94-4.28c1-.66.92-.87-.22-.46l-12.65,5.17c-1.1.53-1,.94.21.94Z"/><path class="cls-2" d="M275.78,154.74a1.9,1.9,0,0,0,1.93-2.19l-2.47-12.26a3.09,3.09,0,0,0-2.81-2.12H255a1.88,1.88,0,0,0-1.9,2.19l1.17,12.18a2.36,2.36,0,0,0,2.33,2.2Z"/><path class="cls-2" d="M226.75,192.68a2.21,2.21,0,0,0,2.2,2.2h11.81c1.22,0,2.22,0,2.23,0l0,0c2.43-4.82,5.09-14.37,5.09-14.37a1.6,1.6,0,0,0-1.62-2.12H229a2.21,2.21,0,0,0-2.2,2.2Z"/><path class="cls-2" d="M226.75,172.61a2.21,2.21,0,0,0,2.2,2.2h18.23a2.62,2.62,0,0,0,2.5-2.19l1.11-12.18a2.07,2.07,0,0,0-2.08-2.2H229a2.21,2.21,0,0,0-2.2,2.2Z"/><path class="cls-2" d="M226.75,152.54a2.21,2.21,0,0,0,2.2,2.2H248.7a2.05,2.05,0,0,0,2.06-2.2l-1.2-12.18a2.61,2.61,0,0,0-2.52-2.19H229a2.21,2.21,0,0,0-2.2,2.2Z"/><path class="cls-2" d="M272.41,180.23c.59-1.06.09-1.92-1.13-1.92H254.47a3,3,0,0,0-2.76,2.13l-4.06,12.39a1.41,1.41,0,0,0,1.41,2h10.66a5.49,5.49,0,0,0,3.64-1.68Z"/><path class="cls-2" d="M265.53,198.38a7.14,7.14,0,0,0-3.91,1.4l-6.75,5c-1,.65-.91.86.23.46L269,199.35c1.1-.54,1-1-.22-1Z"/><path class="cls-2" d="M226.75,132.46a2.2,2.2,0,0,0,2.2,2.2h17.37a1.57,1.57,0,0,0,1.6-2.11s-2.58-9-4.91-13.67l-.14-.26c-.15-.29-1.26-.52-2.47-.52H229a2.21,2.21,0,0,0-2.2,2.2Z"/><path class="cls-2" d="M298.7,160.42a1.84,1.84,0,0,0-1.87-2.18H283.71a2.5,2.5,0,0,0-2.42,2.2l-2.14,12.24a1.63,1.63,0,0,0,1.66,2.13h11.63c1.22,0,2.21,0,2.21,0s.36-.88.79-2Z"/><path class="cls-2" d="M247.27,198.38a4.55,4.55,0,0,0-3.41,1.84l-5.21,6.67c-.82.87-.57,1.26.56.85l16.88-8.18c1-.65.86-1.18-.35-1.18Z"/><path class="cls-2" d="M239.58,200.06c.79-.93.44-1.68-.77-1.68H229a2.21,2.21,0,0,0-2.2,2.21v7a1.3,1.3,0,0,0,2,1.27Z"/><path class="cls-2" d="M296.8,154.74a1.8,1.8,0,0,0,1.83-2.17l-3.48-12.36a3.55,3.55,0,0,0-3-2H280.56a1.6,1.6,0,0,0-1.62,2.13l2.31,12.24a2.5,2.5,0,0,0,2.44,2.2Z"/><path class="cls-2" d="M262.64,119.75A5.62,5.62,0,0,0,259,118.1H248.72a1.38,1.38,0,0,0-1.37,2l4.17,12.4a3.07,3.07,0,0,0,2.79,2.12H271c1.22,0,1.7-.84,1.09-1.9Z"/><path class="cls-2" d="M277.25,119.49a7.25,7.25,0,0,0-3.92-1.39h-5c-1.21,0-1.59.77-.84,1.73l8.46,12.9a4,4,0,0,0,3.25,1.93h10.85c1.22,0,1.58-.76.81-1.69Z"/><path class="cls-2" d="M228.76,104.82a1.32,1.32,0,0,0-2,1.3v6.28a2.2,2.2,0,0,0,2.2,2.19h9.41c1.22,0,1.55-.74.74-1.64Z"/><path class="cls-2" d="M291.35,180c.75-.95.38-1.73-.83-1.73h-11a4,4,0,0,0-3.22,1.95l-8.15,12.87c-.73,1-.34,1.75.88,1.75h4.82a6.21,6.21,0,0,1,2.21.19,7.07,7.07,0,0,0,1.69-1.23Z"/><path class="cls-2" d="M277.77,160.43a1.94,1.94,0,0,0-2-2.19H256.62a2.35,2.35,0,0,0-2.32,2.2l-1.08,12.18a1.89,1.89,0,0,0,1.92,2.19h17.55a3.07,3.07,0,0,0,2.79-2.13Z"/><path class="cls-2" d="M243.42,112.78a4.71,4.71,0,0,0,3.44,1.81h8c1.2,0,1.35-.51.32-1.14l-15.94-7.51c-1.13-.41-1.38,0-.55.85Z"/><path class="cls-2" d="M260.82,113.22a7.33,7.33,0,0,0,3.92,1.37h2.79c1.21,0,1.31-.41.21-.94l-12.64-5.17c-1.14-.41-1.25-.2-.23.46Z"/><path class="cls-2" d="M249,248.34a12.17,12.17,0,0,1-20.84-1l-.73-1.3c-6.46-11.51-10.36-18.57-11.58-21l-2.33-4.62-2.4,4.58c-1.62,3.14-9.93,21-13.48,28.62-.68,1.46-2.41,4.84-2.57,5.18l6-.11c.17-.35.64-1.37,1.33-2.84,2.44-5.24,7.91-17,11.13-23.78,3,5.48,7.45,13.4,9.23,16.56.4.71.64,1.15.69,1.21A17.47,17.47,0,0,0,255,248.34Z"/><path class="cls-2" d="M238.85,224.07a17.43,17.43,0,0,0-15.69,9.8l3.46,5.53a24.7,24.7,0,0,1,1.24-3.1A12.17,12.17,0,0,1,249,234.79h6A17.46,17.46,0,0,0,238.85,224.07Z"/><path class="cls-2" d="M223.74,316.61c-.57-.42-57.89-42.3-79.13-100.13-12.4-33.76-20.71-84.72-20.71-111.15V103.9l1.27-.6C136,98.22,225,68.41,225,68.41s89,29.81,99.82,34.89l1.28.6v1.43c0,26.45-8.33,77.41-20.71,111.15-21.21,57.75-78.56,99.71-79.13,100.13l-1.26.9ZM225,72.9S146,99.07,128.53,106.68l-.26.11v.3c.34,26,8.25,74.67,20.42,107.81,18.89,51.46,66.65,89.75,76.05,96.91l.25.19.26-.19c9.38-7.16,57.15-45.47,76-96.91,12.18-33.14,20.09-81.76,20.42-107.81v-.3l-.27-.11C304.05,99.07,225,73.13,225,72.9Z"/><path class="cls-2" d="M224.06,302c-.53-.37-52.38-38.06-71.71-90.71-11.24-30.59-18.78-76.8-18.78-100.76v-1.08l1-.45c9.84-4.6,90.46-31.63,90.46-31.63s80.62,27,90.46,31.63l1,.45v1.08c0,24-7.55,70.17-18.78,100.76-19.31,52.65-71.18,90.34-71.7,90.71l-.94.68ZM225,80.71s-76.27,25.68-87.87,30.77l-.26.11v.31c.28,23.65,7.45,67.92,18.56,98.17,9.84,26.83,28.32,49.6,42.94,64.65,8.43,8.84,20,19.24,26.63,24h0c6-4.37,17.18-14.56,25.57-23,15-15,33.94-38.31,44-65.71,11.11-30.25,18.28-74.52,18.56-98.17v-.31l-.27-.11C301,106.27,225,80.71,225,80.71Z"/><path class="cls-2" d="M234.45,54.41l6-37.49a62.87,62.87,0,0,1-7.23-6.29l-3.21,43.78Zm-9.46,0h2.1l3.43-46.74A46.1,46.1,0,0,1,225,0a45.83,45.83,0,0,1-5.51,7.67l3.42,46.74Zm17,0,8-31.68a62.15,62.15,0,0,1-6.83-3.93l-5.73,35.61Zm9.15,0,8.1-28A62.23,62.23,0,0,1,252.72,24l-7.66,30.41Zm-54.8,0-8.61-26.83a41.2,41.2,0,0,1-7.49-2.51l10.82,28.59Zm23.58,0-3.22-43.78a62.71,62.71,0,0,1-7.22,6.29l6,37.49Zm39-.75,10.81-28.59a41.2,41.2,0,0,1-7.49,2.51l-8.6,26.83Zm-54,.75L197.27,24a61.41,61.41,0,0,1-6.55,2.44l8.11,28Zm7.64,0L206.82,18.8A61.23,61.23,0,0,1,200,22.73l8,31.68ZM195.09,68.9,225,62.4l30.12,6.5,3.83-12.82H191Z"/><path class="cls-2" d="M111.28,92.18l7,6.4,72.75-28.41-2.87-7.73ZM182,67.24s1.95,1.26,2.22,2a1.44,1.44,0,0,1-.8,1.82,1.38,1.38,0,0,1-1.79-.82C181.37,69.5,182,67.24,182,67.24Zm-5.89,2.29s1.94,1.26,2.22,2a1.42,1.42,0,0,1-.81,1.83,1.37,1.37,0,0,1-1.78-.82A8.58,8.58,0,0,1,176.13,69.53Zm-5.88,2.3s1.94,1.26,2.22,2a1.44,1.44,0,0,1-.8,1.84,1.38,1.38,0,0,1-1.79-.82C169.61,74.09,170.25,71.83,170.25,71.83Zm-5.88,2.3s1.94,1.25,2.21,2a1.42,1.42,0,0,1-.8,1.82,1.36,1.36,0,0,1-1.78-.81C163.72,76.4,164.37,74.13,164.37,74.13Zm-5.89,2.3s2,1.26,2.21,2a1.42,1.42,0,0,1-.8,1.83,1.38,1.38,0,0,1-1.78-.82C157.84,78.69,158.48,76.43,158.48,76.43Zm-5.88,2.3s1.93,1.25,2.21,2a1.44,1.44,0,0,1-.79,1.84,1.39,1.39,0,0,1-1.79-.83C152,81,152.6,78.73,152.6,78.73ZM146.71,81s1.94,1.26,2.22,2a1.44,1.44,0,0,1-.8,1.83,1.36,1.36,0,0,1-1.78-.83C146.07,83.29,146.71,81,146.71,81Zm-5.89,2.31s2,1.25,2.23,2a1.45,1.45,0,0,1-.81,1.83,1.37,1.37,0,0,1-1.78-.82C140.19,85.59,140.82,83.33,140.82,83.33Zm-5.88,2.29s1.94,1.26,2.21,2a1.41,1.41,0,0,1-.78,1.82,1.38,1.38,0,0,1-1.8-.81C134.3,87.88,134.94,85.62,134.94,85.62Zm-5.89,2.3s2,1.25,2.21,2a1.42,1.42,0,0,1-.79,1.83,1.37,1.37,0,0,1-1.78-.83C128.41,90.19,129.05,87.92,129.05,87.92Zm-5.88,2.3s2,1.26,2.22,2a1.42,1.42,0,0,1-.8,1.83,1.37,1.37,0,0,1-1.79-.82C122.53,92.48,123.17,90.22,123.17,90.22Z"/><polygon class="cls-2" points="107.98 89.15 186.68 58.21 187.63 60.83 110.27 91.24 107.98 89.15"/><path class="cls-2" d="M86.1,83.69l0,0a1.34,1.34,0,0,0,.13-.27,2.11,2.11,0,0,0,0-.25,5.37,5.37,0,0,1-.73-.41.74.74,0,0,1,0,.53.08.08,0,0,1,0,0l0,0a.34.34,0,0,1-.16.08,4.38,4.38,0,0,0,.66.37.12.12,0,0,0,0,0S86.09,83.71,86.1,83.69Z"/><path class="cls-2" d="M97,88.8a2.18,2.18,0,1,1-2.81-1.27A2.17,2.17,0,0,1,97,88.8Z"/><path class="cls-2" d="M117.25,78.47a2.17,2.17,0,1,1-2.81-1.28A2.17,2.17,0,0,1,117.25,78.47Z"/><path class="cls-2" d="M141,68.85A2.18,2.18,0,1,1,137,70.38,2.18,2.18,0,0,1,141,68.85Z"/><path class="cls-2" d="M165.9,60.24A2.18,2.18,0,1,1,163.09,59,2.18,2.18,0,0,1,165.9,60.24Z"/><path class="cls-2" d="M179.31,52.49a12.07,12.07,0,0,1-6.07,2.25,11.93,11.93,0,0,1-6.55-2c-1.66-.94-1.84-3-1.29-4.65s2.71-3.37,4.9-2.37a5,5,0,0,0-6-2.58c-.17-2.78-1.22-5.58-3-5.81a2.2,2.2,0,0,0-2.09,1.25,10.16,10.16,0,0,0-.72-1.14l.26-.07a2.26,2.26,0,1,0-1.6-4.22,1.59,1.59,0,0,0-.31.17.28.28,0,0,0,0-.11,2.56,2.56,0,1,0-4.8,1.81.26.26,0,0,1,.05.09,1.89,1.89,0,0,0-.34.09,2.25,2.25,0,1,0,1.59,4.21.46.46,0,0,0,.22-.11,11.47,11.47,0,0,0,.22,1.35,2.19,2.19,0,0,0-2.39.43c-1.22,1.37-.16,4.15,1.54,6.35a5,5,0,0,0-3,6c1-2.18,3.75-2.21,5.24-1.44s1.65,3.19,1,4.66c-1.28,2.85-5.2,4.33-6.93,4.81a8.7,8.7,0,0,1-7.45-1.16c-2.13-1.73-3.28-4.22-2.73-5.87s2.7-3.37,4.9-2.38a4.84,4.84,0,0,0-5-2.75c-.06-3.38-1.27-7-3.49-7.28A2.54,2.54,0,0,0,133,43.46a11.22,11.22,0,0,0-.82-1.31l.28-.07a2.59,2.59,0,1,0-1.83-4.84c-.13,0-.25.12-.37.18a.5.5,0,0,0,0-.12,2.94,2.94,0,1,0-5.51,2.08.37.37,0,0,1,.05.11,1.72,1.72,0,0,0-.39.1,2.59,2.59,0,1,0,1.82,4.84,2.24,2.24,0,0,0,.27-.13,12.7,12.7,0,0,0,.24,1.53,2.53,2.53,0,0,0-2.74.5c-1.47,1.66,0,5.13,2.11,7.71a4.87,4.87,0,0,0-2.28,5.6c1-2.19,3.74-2.21,5.24-1.45s2.29,3.51,1.83,6.22A8.71,8.71,0,0,1,126,70.19c-1.62.79-5.55,2.26-8.39,1-1.47-.66-2.89-2.48-2.34-4.14s2.72-3.37,4.89-2.38a5,5,0,0,0-6.22-2.5c-.17-2.78-1.21-5.57-3-5.8a2.2,2.2,0,0,0-2.08,1.25c-.24-.41-.48-.79-.72-1.15a.53.53,0,0,0,.24-.06,2.25,2.25,0,1,0-1.59-4.21,3.31,3.31,0,0,0-.33.15l0-.1a2.56,2.56,0,0,0-4.8,1.81s0,.06,0,.1l-.35.09a2.25,2.25,0,0,0,1.59,4.22,1.85,1.85,0,0,0,.24-.11,11.4,11.4,0,0,0,.21,1.33,2.18,2.18,0,0,0-2.39.44c-1.21,1.36-.14,4.16,1.56,6.36a5,5,0,0,0-2.79,5.88c1-2.19,3.76-2.21,5.25-1.45a5.54,5.54,0,0,1,2.51,5.36c-.37,3.11-1.29,4.34-5.07,6a10.9,10.9,0,0,1-3.26.74c-2.36-.19-3.48-1.39-3.69-3,0-.31,0-.61,0-.93,0-2.08-.74-4.37-2.1-4.54a1.48,1.48,0,0,0-1.42.86c-.9-1.65-2.07-2.54-3-2.19s-1.19,1.76-.78,3.6a1.5,1.5,0,0,0-1.64.3c-.62.69-.36,1.93.28,3.14a6.74,6.74,0,0,0-2.09-1h0l-.42-.09h-.54l-.09,0h0a1.16,1.16,0,0,0-.8.39,4,4,0,0,0-.87-.33h0a3,3,0,0,0-.41-.08h-.15a.86.86,0,0,0-.22,0h-.15L81,79h0a1.17,1.17,0,0,0-.85.43s0,0,0,0,0,0,0,0a1.17,1.17,0,0,0-.13.95h0a1,1,0,0,0,.06.23h0c0,.07.06.15.1.23h0a3.17,3.17,0,0,0,.28.49h0a6.38,6.38,0,0,0,1.82,1.76l.12.07a5.09,5.09,0,0,0-2.66,3.11l0,.19c-.89,5.82,6,9.08,14.49,7.16-5.35-.37-10-2.75-9.47-6.1.53-2,3.19-2.75,6.53-2.61,1.36.06,2.78.33,4.57.47,3.21.22,4.39.52,7.61-.68,4.27-1.62,7.28-4.6,7.81-6.77a16.71,16.71,0,0,0,.48-5.41,9.26,9.26,0,0,0,1.73,1.14c5.12,2.52,10.68.09,13.56-1a14.12,14.12,0,0,0,7.19-6.7,13.71,13.71,0,0,0,1.46-5.37,13.72,13.72,0,0,0,4.64,3.08,14.07,14.07,0,0,0,9.82.28C153,63,158.77,61.12,161,55.85a8.9,8.9,0,0,0,.55-2A36.3,36.3,0,0,0,168.06,57c2.57.89,5.18,1.36,10.06-.48,3.09-1.18,6.19-5.78,4.95-10.53C183,47.21,182.1,49.86,179.31,52.49ZM83.11,82.88a3,3,0,0,1-.45-.27,5.83,5.83,0,0,1-1.73-1.7h0a.56.56,0,0,1-.07-.13l0-.07a.32.32,0,0,0,0-.09.3.3,0,0,1,0-.1l0-.06,0-.1a.13.13,0,0,0,0-.06.17.17,0,0,1,0-.07.19.19,0,0,1,0-.08v0a.31.31,0,0,1,0-.1h0l0-.08,0,0a.08.08,0,0,0,0,0l.07-.06h0l.1,0h0l.11,0h0l.09,0h.23l.14,0h0a4.83,4.83,0,0,1,1.14.35,1.19,1.19,0,0,0,0,.42v0l.06.22v0c0,.07.06.14.11.23h0a2.68,2.68,0,0,0,.27.49h0a5.7,5.7,0,0,0,.91,1A9.52,9.52,0,0,0,83.11,82.88Zm4.67-1a11.8,11.8,0,0,0-2.91.35A5.51,5.51,0,0,1,83.66,81h0a1,1,0,0,1-.08-.14l0-.06a.42.42,0,0,1,0-.1.73.73,0,0,1-.05-.09s0,0,0-.07a0,0,0,0,1,0,0l0-.07a.17.17,0,0,1,0-.07.14.14,0,0,0,0-.06v-.13a.22.22,0,0,1,0-.08s0,0,0,0a.13.13,0,0,1,0-.08s0,0,0,0l0,0a.16.16,0,0,1,.08-.06h0a.08.08,0,0,1,.07,0s0,0,0,0h0l.11,0h.54a5.67,5.67,0,0,1,2.36,1.11,5.79,5.79,0,0,1,1.12,1.07Zm.7-.86c-1.2-1.47-1.66-3-1.24-3.49.22-.24.78-.16,1.44.21h0a6.57,6.57,0,0,1,1.69,1.41,7.62,7.62,0,0,1,1.25,1.94ZM91.26,79a4.15,4.15,0,0,0-.27-.32,7.83,7.83,0,0,0-1.76-1.51c-.57-1.87-.31-3.12.11-3.28s1.51.75,2.24,2.39a7.82,7.82,0,0,0-.32,2.29Zm3.28,1.67-.46.53-1.54,0a2.18,2.18,0,0,1-.11-.27h0a7.47,7.47,0,0,1-.35-2.32,7,7,0,0,1,.33-2.18c.25-.71.63-1.17.94-1.11C94,75.34,94.74,77,94.74,79A7.27,7.27,0,0,1,94.54,80.66Zm12.67-27.39a1.06,1.06,0,1,1-.61,1.37A1.06,1.06,0,0,1,107.21,53.27Zm-3.65-1.44a1.37,1.37,0,1,1-.8,1.77A1.38,1.38,0,0,1,103.56,51.83Zm-1,5.48a1.07,1.07,0,0,1-1.37-.61,1.06,1.06,0,0,1,.62-1.37,1.06,1.06,0,1,1,.75,2Zm5.79,8.83a3.37,3.37,0,0,0,.13.38,4.15,4.15,0,0,0-.41-.27,5.76,5.76,0,0,0-4.32-.27c-1.76-2.14-2.43-4.42-1.82-5.09.31-.35,1.14-.23,2.1.31h0a9.67,9.67,0,0,1,2.48,2.06,11.71,11.71,0,0,1,1.84,2.87Zm-.56-3.8c0,.21,0,.42,0,.63-.13-.17-.27-.33-.4-.48a11.17,11.17,0,0,0-2.59-2.21c-.82-2.72-.43-4.54.17-4.76.27-.1.63,0,1,.34l.17.14a9.16,9.16,0,0,1,2.06,3A11.46,11.46,0,0,0,107.75,62.34ZM110,65.52a5.8,5.8,0,0,0-.25.85,4.53,4.53,0,0,1-.27-.66h0a10.68,10.68,0,0,1-.51-3.37,10.13,10.13,0,0,1,.48-3.19c.37-1,.92-1.69,1.38-1.63.91.11,1.92,2.29,2,5.09A5.85,5.85,0,0,0,110,65.52Zm23.66-20.26c.42-1.19,1-1.93,1.58-1.86,1.09.13,2.3,2.82,2.31,6.2a5.93,5.93,0,0,0-3.82,3.28.18.18,0,0,1,0-.09h0a12.27,12.27,0,0,1-.59-3.87A11.48,11.48,0,0,1,133.64,45.26Zm-2.54-6.75a1.22,1.22,0,1,1-.71,1.57A1.23,1.23,0,0,1,131.1,38.51Zm-4.2-1.65a1.58,1.58,0,1,1-.91,2A1.58,1.58,0,0,1,126.9,36.86Zm1.61,4.23a1.34,1.34,0,0,1,1.19.4l.18.15a10.06,10.06,0,0,1,2.38,3.44,12.81,12.81,0,0,0-.55,3.84c0,.24,0,.48,0,.73-.16-.2-.32-.38-.48-.56a12.47,12.47,0,0,0-2.95-2.53C127.35,43.44,127.81,41.35,128.51,41.09Zm-2.81,2.06a1.21,1.21,0,1,1-.84-2.28,1.21,1.21,0,1,1,.84,2.28Zm1.64,10.29c-2.23-2.56-3.08-5.37-2.36-6.2.37-.4,1.31-.25,2.42.38h0A11.29,11.29,0,0,1,130.24,50a12.43,12.43,0,0,1,2.1,3.29h0c.08.22.14.41.21.61-.16-.11-.34-.22-.52-.32A5.8,5.8,0,0,0,127.34,53.44ZM157.58,34.3a1.06,1.06,0,1,1-.63,1.37A1.07,1.07,0,0,1,157.58,34.3Zm-3.66-1.44a1.37,1.37,0,1,1-.8,1.77A1.39,1.39,0,0,1,153.92,32.86Zm-1,5.48a1.06,1.06,0,0,1-1.37-.62,1.06,1.06,0,1,1,1.37.62Zm5.77,8.84a5,5,0,0,1,.24.68,6.39,6.39,0,0,0-.75-.48,5.9,5.9,0,0,0-4.06-.32c-1.78-2.15-2.46-4.45-1.85-5.14.32-.35,1.15-.22,2.11.32a9.72,9.72,0,0,1,2.47,2.07,10.89,10.89,0,0,1,1.84,2.87ZM158.12,44l-.41-.48a11.24,11.24,0,0,0-2.57-2.2,8.75,8.75,0,0,1-.42-3.61,1.43,1.43,0,0,0,0-.23c.1-.5.29-.83.56-.93.6-.23,2.09.87,3.27,3.47a11,11,0,0,0-.48,3.35C158.1,43.58,158.11,43.8,158.12,44Zm2,2.65c-.05.15-.09.31-.14.46,0-.12-.09-.23-.13-.36h0a10.69,10.69,0,0,1-.53-3.38,10.06,10.06,0,0,1,.49-3.18h0c.37-1,.9-1.69,1.38-1.64.9.12,1.89,2.27,2,5A5.74,5.74,0,0,0,160.08,46.65Z"/><path class="cls-2" d="M261.8,62.44l-2.87,7.73,72.75,28.41,7-6.4Zm6.54,7.79a1.38,1.38,0,0,1-1.79.82,1.45,1.45,0,0,1-.8-1.82c.28-.73,2.22-2,2.22-2S268.61,69.5,268.34,70.23Zm5.89,2.3a1.38,1.38,0,0,1-1.78.82,1.42,1.42,0,0,1-.8-1.83c.26-.73,2.22-2,2.22-2S274.5,71.8,274.23,72.53Zm5.88,2.3a1.37,1.37,0,0,1-1.78.82,1.44,1.44,0,0,1-.8-1.84c.27-.72,2.21-2,2.21-2S280.38,74.09,280.11,74.83Zm5.89,2.3a1.37,1.37,0,0,1-1.78.81,1.42,1.42,0,0,1-.81-1.82c.28-.74,2.21-2,2.21-2S286.27,76.4,286,77.13Zm5.89,2.3a1.4,1.4,0,0,1-1.8.82,1.43,1.43,0,0,1-.79-1.83c.26-.73,2.22-2,2.22-2A8.54,8.54,0,0,1,291.89,79.43Zm5.87,2.29a1.38,1.38,0,0,1-1.78.83,1.43,1.43,0,0,1-.79-1.84c.26-.73,2.2-2,2.2-2S298,81,297.76,81.72ZM303.65,84a1.37,1.37,0,0,1-1.79.83,1.43,1.43,0,0,1-.79-1.83c.27-.73,2.22-2,2.22-2S303.93,83.29,303.65,84Zm5.89,2.31a1.38,1.38,0,0,1-1.79.82,1.44,1.44,0,0,1-.8-1.83c.27-.73,2.22-2,2.22-2A8.51,8.51,0,0,1,309.54,86.32Zm5.88,2.3a1.36,1.36,0,0,1-1.78.81,1.42,1.42,0,0,1-.8-1.82c.27-.73,2.21-2,2.21-2S315.69,87.88,315.42,88.62Zm5.89,2.29a1.38,1.38,0,0,1-1.79.83,1.44,1.44,0,0,1-.8-1.83c.27-.74,2.22-2,2.22-2S321.58,90.19,321.31,90.91Zm5.88,2.3a1.37,1.37,0,0,1-1.79.82,1.44,1.44,0,0,1-.8-1.83c.27-.72,2.23-2,2.23-2S327.46,92.48,327.19,93.21Z"/><polygon class="cls-2" points="342.01 89.15 263.32 58.21 262.37 60.83 339.73 91.24 342.01 89.15"/><path class="cls-2" d="M363.9,83.69l0,0a1.38,1.38,0,0,1-.14-.27,2.11,2.11,0,0,1,0-.25,6.14,6.14,0,0,0,.74-.41.75.75,0,0,0,0,.53l0,0s0,0,0,0a.45.45,0,0,0,.17.08,4.55,4.55,0,0,1-.68.37l0,0S363.9,83.71,363.9,83.69Z"/><path class="cls-2" d="M353,88.8a2.18,2.18,0,1,0,2.8-1.27A2.19,2.19,0,0,0,353,88.8Z"/><path class="cls-2" d="M332.74,78.47a2.18,2.18,0,1,0,2.81-1.28A2.17,2.17,0,0,0,332.74,78.47Z"/><path class="cls-2" d="M309,68.85A2.18,2.18,0,0,0,313,70.38,2.18,2.18,0,0,0,309,68.85Z"/><path class="cls-2" d="M284.09,60.24a2.18,2.18,0,0,0,1.28,2.81A2.18,2.18,0,0,0,286.9,59,2.19,2.19,0,0,0,284.09,60.24Z"/><path class="cls-2" d="M266.93,46c-1.24,4.75,1.84,9.35,4.94,10.53,4.88,1.84,7.49,1.37,10.06.48a36.3,36.3,0,0,0,6.55-3.13,9.46,9.46,0,0,0,.55,2c2.19,5.27,8,7.11,10.84,8.19a14.09,14.09,0,0,0,9.83-.28,13.63,13.63,0,0,0,4.64-3.08,13.71,13.71,0,0,0,1.46,5.37,14.1,14.1,0,0,0,7.2,6.7c2.88,1.09,8.43,3.52,13.56,1a9.26,9.26,0,0,0,1.73-1.14,16.7,16.7,0,0,0,.47,5.41c.54,2.17,3.54,5.15,7.82,6.77,3.21,1.2,4.4.9,7.6.68,1.79-.14,3.22-.41,4.57-.47,3.35-.14,6,.6,6.54,2.61.56,3.35-4.13,5.73-9.48,6.1,8.51,1.92,15.39-1.34,14.5-7.16l0-.19a5.15,5.15,0,0,0-2.66-3.11,1.05,1.05,0,0,0,.11-.07,6.42,6.42,0,0,0,1.83-1.76h0a4.27,4.27,0,0,0,.28-.49h0c0-.08.07-.16.1-.23h0a1,1,0,0,0,.05-.23h0a1.21,1.21,0,0,0-.12-.95l0,0s0,0,0,0A1.17,1.17,0,0,0,369,79h0l-.1,0h-.17a1,1,0,0,0-.23,0h-.13a3.58,3.58,0,0,0-.43.08h0a4.42,4.42,0,0,0-.87.33,1.16,1.16,0,0,0-.8-.39h0l-.09,0h-.55l-.4.09h0a6.7,6.7,0,0,0-2.08,1c.63-1.21.89-2.45.27-3.14a1.5,1.5,0,0,0-1.64-.3c.41-1.84.12-3.26-.78-3.6s-2.08.54-3,2.19a1.49,1.49,0,0,0-1.43-.86c-1.37.17-2.1,2.46-2.1,4.54,0,.32,0,.62.05.93-.21,1.65-1.32,2.85-3.68,3a11,11,0,0,1-3.27-.74c-3.78-1.64-4.69-2.87-5.06-6a5.52,5.52,0,0,1,2.5-5.36c1.49-.76,4.25-.74,5.25,1.45a4.94,4.94,0,0,0-2.8-5.88c1.72-2.2,2.79-5,1.57-6.36a2.17,2.17,0,0,0-2.39-.44,9.53,9.53,0,0,0,.2-1.33l.25.11a2.26,2.26,0,1,0,1.24-4.31.42.42,0,0,0,0-.1,2.56,2.56,0,1,0-4.8-1.81s0,.07,0,.1a2.52,2.52,0,0,0-.33-.15,2.25,2.25,0,1,0-1.58,4.21.5.5,0,0,0,.24.06c-.24.36-.49.74-.72,1.15a2.23,2.23,0,0,0-2.1-1.25c-1.8.23-2.84,3-3,5.8a5,5,0,0,0-6.21,2.5c2.18-1,4.26.81,4.89,2.38s-.87,3.48-2.34,4.14c-2.85,1.3-6.76-.17-8.39-1a8.67,8.67,0,0,1-4.82-5.78c-.48-2.71.31-5.33,1.82-6.22s4.26-.74,5.25,1.45a4.87,4.87,0,0,0-2.29-5.6c2.14-2.58,3.59-6,2.12-7.71a2.55,2.55,0,0,0-2.75-.5,12.7,12.7,0,0,0,.24-1.53l.28.13a2.59,2.59,0,0,0,1.82-4.84,1.86,1.86,0,0,0-.39-.1.37.37,0,0,1,.05-.11,2.94,2.94,0,1,0-5.5-2.08.56.56,0,0,0,0,.12l-.36-.18a2.59,2.59,0,1,0-1.83,4.84l.27.07a12.73,12.73,0,0,0-.82,1.31A2.54,2.54,0,0,0,314.6,42c-2.21.27-3.43,3.9-3.49,7.28a4.84,4.84,0,0,0-5,2.75c2.2-1,4.28.81,4.91,2.38s-.6,4.14-2.74,5.87a8.68,8.68,0,0,1-7.44,1.16c-1.75-.48-5.65-2-6.94-4.81-.67-1.47-.52-3.78,1-4.66s4.26-.74,5.25,1.44a5,5,0,0,0-3-6c1.7-2.2,2.76-5,1.55-6.35a2.17,2.17,0,0,0-2.38-.43,11.3,11.3,0,0,0,.2-1.35.65.65,0,0,0,.22.11,2.25,2.25,0,1,0,1.25-4.3.9.9,0,0,0,.05-.09,2.57,2.57,0,1,0-4.81-1.81s0,.06,0,.11a1.48,1.48,0,0,0-.33-.17,2.25,2.25,0,1,0-1.58,4.22l.25.07q-.36.51-.72,1.14a2.19,2.19,0,0,0-2.09-1.25c-1.81.23-2.85,3-3,5.81a5,5,0,0,0-6,2.58c2.18-1,4.27.81,4.89,2.37s.37,3.71-1.29,4.65a11.93,11.93,0,0,1-6.55,2,12.14,12.14,0,0,1-6.07-2.25C267.9,49.86,267,47.21,266.93,46Zm99,36.53a7.24,7.24,0,0,0,.92-1h0a3.45,3.45,0,0,0,.27-.49h0a1.22,1.22,0,0,1,.1-.23v0a1.42,1.42,0,0,1,.07-.22v0a2,2,0,0,0,0-.42,5,5,0,0,1,1.14-.35h0l.13,0h.23l.11,0h0l.1,0h0l.08,0h0l.08.06s0,0,0,0,0,0,0,0,0,0,0,.08h0a.31.31,0,0,1,0,.1v0a.19.19,0,0,1,0,.08v.07a.14.14,0,0,0,0,.06l0,.1s0,0,0,.06a.29.29,0,0,1,0,.1.36.36,0,0,0,0,.09.25.25,0,0,0,0,.07l-.07.13h0a5.78,5.78,0,0,1-1.72,1.7,3.67,3.67,0,0,1-.46.27A10.33,10.33,0,0,0,365.91,82.49Zm-3.7-.57h0a5.88,5.88,0,0,1,1.13-1.07,5.67,5.67,0,0,1,2.36-1.11h.53l.1,0h.05s0,0,.07,0h0a.16.16,0,0,1,.08.06s0,0,0,0l0,0s0,.06,0,.08v0a.22.22,0,0,1,0,.08v.05a.25.25,0,0,1,0,.08v.06s0,.05,0,.07a.19.19,0,0,1,0,.07,0,0,0,0,0,0,0l0,.07,0,.09s0,.06,0,.1a.21.21,0,0,1,0,.06.5.5,0,0,1-.08.14h0a5.38,5.38,0,0,1-1.19,1.32,11.94,11.94,0,0,0-2.92-.35Zm-3.82-.78a7.27,7.27,0,0,1,1.23-1.94,6.6,6.6,0,0,1,1.7-1.41h0c.65-.37,1.22-.45,1.44-.21.41.46-.05,2-1.24,3.49Zm.34-2.58a7.82,7.82,0,0,0-.32-2.29c.74-1.64,1.76-2.57,2.25-2.39s.68,1.41.11,3.28A7.65,7.65,0,0,0,359,78.67l-.27.32Zm-3.47.43c0-2,.73-3.65,1.38-3.72.32-.06.69.4.94,1.11a6.69,6.69,0,0,1,.34,2.18,7.47,7.47,0,0,1-.35,2.32h0c0,.1-.08.18-.11.27l-1.54,0-.46-.53A6.76,6.76,0,0,1,355.26,79ZM343.4,54.64a1.06,1.06,0,1,1-.63-1.37A1.08,1.08,0,0,1,343.4,54.64Zm3.83-1a1.36,1.36,0,0,1-1.76.8,1.37,1.37,0,1,1,1.76-.8Zm-.37,2.34a1.06,1.06,0,1,1,.62,1.37A1.06,1.06,0,0,1,346.86,55.94Zm-5.18,10.2a11.19,11.19,0,0,1,1.85-2.87A9.63,9.63,0,0,1,346,61.21h0c1-.54,1.78-.66,2.09-.31.62.67-.06,3-1.81,5.09a5.79,5.79,0,0,0-4.33.27c-.14.08-.27.18-.4.27.05-.12.07-.24.12-.38Zm.09-7.16a8.87,8.87,0,0,1,2.05-3,1.24,1.24,0,0,0,.18-.14,1.16,1.16,0,0,1,1-.34c.61.22,1,2,.17,4.76a10.93,10.93,0,0,0-2.58,2.21c-.14.15-.27.31-.4.48v-.63A11.82,11.82,0,0,0,341.77,59Zm-4.59,3.63c.09-2.8,1.1-5,2-5.09.46-.06,1,.59,1.36,1.63a9.58,9.58,0,0,1,.5,3.19,11,11,0,0,1-.51,3.37h0a6,6,0,0,1-.27.66,7.46,7.46,0,0,0-.26-.85A5.79,5.79,0,0,0,337.18,62.61ZM316.91,48.92a12.56,12.56,0,0,1-.58,3.87h0a.36.36,0,0,0,0,.09,6,6,0,0,0-3.82-3.28c0-3.38,1.22-6.07,2.3-6.2.54-.07,1.16.67,1.57,1.86A10.94,10.94,0,0,1,316.91,48.92Zm2.7-8.84a1.22,1.22,0,1,1-.71-1.57A1.23,1.23,0,0,1,319.61,40.08ZM324,38.89a1.57,1.57,0,1,1-2.94-1.11A1.57,1.57,0,1,1,324,38.89Zm-2.32,7.67a12.88,12.88,0,0,0-2.95,2.53,6.22,6.22,0,0,0-.46.56c0-.25,0-.49,0-.73a13.14,13.14,0,0,0-.54-3.84,9.79,9.79,0,0,1,2.37-3.44.9.9,0,0,0,.18-.15c.48-.37.9-.51,1.2-.4C322.19,41.35,322.63,43.44,321.68,46.56Zm1.9-5a1.22,1.22,0,1,1,.71,1.56A1.21,1.21,0,0,1,323.58,41.59Zm-5.63,12c-.18.1-.35.21-.51.32.07-.2.13-.39.2-.61h0A12.77,12.77,0,0,1,319.76,50a11.25,11.25,0,0,1,2.83-2.37h0c1.12-.63,2.05-.78,2.42-.38.73.83-.13,3.64-2.36,6.2A5.8,5.8,0,0,0,318,53.57ZM293,35.67a1.06,1.06,0,1,1-.63-1.37A1.07,1.07,0,0,1,293,35.67Zm3.83-1a1.37,1.37,0,1,1-.8-1.77A1.39,1.39,0,0,1,296.87,34.63ZM296.5,37a1.06,1.06,0,1,1,2,.75,1.06,1.06,0,1,1-2-.75Zm-5.15,10.21a10.84,10.84,0,0,1,1.83-2.87,9.89,9.89,0,0,1,2.47-2.07c1-.54,1.8-.67,2.11-.32.61.69-.07,3-1.85,5.14a5.87,5.87,0,0,0-4.05.32,5.65,5.65,0,0,0-.75.48,7,7,0,0,1,.24-.68Zm.55-3.81a11,11,0,0,0-.49-3.35c1.19-2.6,2.67-3.7,3.28-3.47.26.1.45.43.55.93a1.37,1.37,0,0,0,0,.23,8.92,8.92,0,0,1-.42,3.61,11.07,11.07,0,0,0-2.58,2.2l-.4.48C291.89,43.8,291.9,43.58,291.9,43.37Zm-5.06.22c.1-2.77,1.09-4.92,2-5,.46,0,1,.59,1.37,1.64h0a9.28,9.28,0,0,1,.49,3.18,11,11,0,0,1-.51,3.38h0l-.15.36c0-.15-.08-.31-.13-.46A5.71,5.71,0,0,0,286.84,43.59Z"/></g></g></svg>